<?xml version="1.0" standalone="no"?>
<!DOCTYPE svg PUBLIC "-//W3C//DTD SVG 20010904//EN"
 "http://www.w3.org/TR/2001/REC-SVG-20010904/DTD/svg10.dtd">
<svg version="1.0" xmlns="http://www.w3.org/2000/svg"
 width="3000.000000pt" height="3000.000000pt" viewBox="0 0 3000.000000 3000.000000"
 preserveAspectRatio="xMidYMid meet">

<g transform="translate(0.000000,3000.000000) scale(0.100000,-0.100000)"
fill="#000000" stroke="none">
<path d="M15284 28255 c3 -8 8 -21 11 -27 4 -10 -24 -13 -123 -13 -70 1 -147
-1 -172 -4 -39 -4 -41 -5 -20 -12 14 -4 59 -7 101 -8 57 -1 78 -5 82 -15 7
-17 -18 -40 -33 -31 -5 3 -10 1 -10 -4 0 -6 18 -14 40 -17 22 -4 43 -11 46
-15 3 -5 14 -9 25 -9 10 0 19 -5 19 -11 0 -7 -8 -9 -22 -4 -13 3 -41 11 -63
17 -22 6 -46 20 -53 30 -13 18 -34 25 -30 11 2 -5 -4 -17 -12 -28 -11 -15 -27
-20 -65 -21 -77 -1 -165 -6 -165 -10 0 -1 7 -10 16 -19 24 -24 14 -26 -46 -10
-32 9 -74 12 -100 9 -30 -4 -54 -1 -73 9 -24 13 -33 13 -54 2 -19 -10 -30 -11
-44 -2 -10 6 -15 15 -13 19 3 4 -7 9 -23 9 -17 1 -8 5 25 11 40 7 52 14 52 28
0 13 -5 17 -21 13 -16 -4 -17 -8 -7 -14 9 -6 7 -9 -9 -9 -12 0 -25 5 -28 10
-5 8 -11 7 -21 -1 -8 -7 -27 -9 -49 -5 -34 7 -144 -23 -170 -46 -5 -4 -19 -8
-31 -8 -12 0 -33 -9 -47 -20 -14 -11 -32 -20 -40 -20 -9 0 -19 -5 -22 -10 -4
-6 -59 -37 -123 -69 -64 -31 -154 -78 -199 -104 -45 -26 -88 -47 -95 -48 -32
-2 -303 -190 -331 -230 -14 -20 -66 -62 -114 -95 -48 -32 -117 -84 -152 -116
-35 -32 -69 -58 -75 -58 -6 0 -47 -34 -91 -75 -44 -41 -83 -75 -87 -75 -5 0
-8 -13 -8 -28 0 -41 -88 -127 -124 -120 -21 4 -30 -1 -47 -28 -14 -23 -28 -34
-44 -34 -25 0 -35 -22 -35 -81 0 -28 -5 -38 -25 -47 -23 -10 -25 -17 -25 -72
0 -71 -8 -87 -77 -160 -28 -30 -64 -80 -80 -110 -25 -50 -28 -65 -28 -160 0
-58 -6 -131 -13 -163 -10 -44 -11 -65 -3 -85 8 -19 8 -38 1 -62 -5 -19 -7 -56
-4 -82 4 -25 1 -68 -5 -95 -9 -37 -9 -59 0 -93 13 -50 12 -42 10 -260 -2 -196
0 -224 23 -249 14 -15 20 -42 24 -96 3 -52 9 -75 17 -75 10 0 13 -26 13 -105
-1 -64 3 -109 10 -118 6 -7 16 -49 22 -93 11 -83 39 -184 51 -184 8 0 39 -63
39 -80 0 -17 -95 -7 -135 14 -37 20 -115 21 -160 2 -37 -16 -60 -49 -51 -73 4
-9 1 -22 -5 -29 -26 -31 15 -415 43 -398 8 5 12 -41 8 -103 -2 -45 9 -80 21
-62 13 22 23 -16 12 -48 -9 -26 0 -94 45 -362 7 -38 30 -103 56 -155 24 -50
47 -102 51 -115 10 -32 106 -189 154 -252 22 -28 40 -95 41 -145 0 -39 21 -84
39 -84 8 0 20 -8 28 -17 14 -17 14 -17 8 1 -6 19 -5 19 15 1 11 -10 20 -13 20
-7 0 20 22 13 27 -7 3 -12 16 -22 32 -24 22 -3 22 -4 -7 -6 -18 0 -31 -5 -28
-9 7 -13 72 -13 123 -1 33 7 49 6 59 -2 18 -15 32 -3 16 13 -7 7 -12 34 -12
61 0 45 2 48 21 42 15 -5 19 -4 15 4 -4 6 -14 11 -22 11 -8 0 -14 5 -14 10 0
6 9 10 20 10 24 0 53 -41 44 -63 -4 -11 4 -22 23 -34 27 -18 33 -35 33 -102 0
-13 5 -29 10 -36 7 -9 6 -14 -3 -18 -8 -3 -14 -16 -13 -29 1 -17 7 -22 21 -21
13 1 26 -9 37 -28 13 -23 14 -29 4 -29 -19 0 -29 -46 -14 -69 7 -11 20 -22 30
-24 10 -3 18 -12 18 -20 0 -10 -7 -13 -20 -10 -21 6 -21 6 -3 -47 4 -11 7 -9
14 8 9 25 39 30 39 7 0 -8 7 -15 15 -15 17 0 20 -16 5 -25 -8 -5 -7 -11 1 -21
9 -11 8 -14 -2 -14 -9 -1 -6 -8 9 -20 21 -17 21 -20 6 -28 -16 -9 -15 -11 4
-23 12 -8 22 -24 22 -36 0 -30 18 -39 22 -11 4 22 5 22 16 -6 10 -22 10 -32 1
-42 -9 -11 -8 -18 5 -32 18 -20 12 -34 -10 -25 -14 5 -18 -6 -14 -41 1 -12 -2
-16 -11 -11 -8 5 -10 4 -5 -3 11 -19 26 -14 38 13 16 36 42 33 35 -4 -5 -22 0
-34 18 -51 21 -20 23 -29 18 -68 -5 -35 -3 -46 10 -54 9 -4 14 -15 10 -23 -4
-11 1 -14 18 -13 21 3 24 -2 27 -34 4 -49 -16 -50 -59 -3 -18 19 -38 35 -46
35 -7 0 -13 6 -13 13 0 6 -11 17 -23 23 l-24 11 -1 -166 c-2 -248 -12 -431
-24 -481 -7 -25 -23 -61 -36 -80 -25 -37 -101 -110 -114 -110 -4 0 -8 -4 -8
-10 0 -5 -11 -20 -25 -34 -14 -14 -25 -32 -25 -41 0 -8 -4 -15 -9 -15 -12 0
-41 -29 -41 -40 0 -5 19 -11 43 -13 35 -3 38 -5 20 -11 -13 -5 -23 -14 -23
-21 0 -7 -10 -19 -22 -28 -19 -12 -21 -18 -10 -28 10 -11 15 -9 28 9 18 25 34
21 34 -10 0 -13 -5 -18 -15 -15 -9 4 -25 -9 -45 -35 -32 -44 -37 -67 -19 -85
8 -8 8 -13 0 -17 -6 -4 -11 -17 -11 -30 0 -31 -20 -86 -31 -86 -4 0 -6 7 -3
15 5 11 2 13 -10 9 -14 -6 -16 -2 -10 22 4 16 12 32 18 36 6 4 10 34 9 70 -2
52 2 67 19 85 l21 23 -22 0 c-14 0 -28 -11 -39 -31 -9 -17 -26 -43 -38 -58
-11 -14 -23 -34 -27 -43 -7 -20 -47 -25 -47 -5 0 8 -3 7 -9 -3 -13 -19 -5 -29
19 -23 24 6 26 -10 6 -49 -13 -25 -13 -30 2 -45 12 -12 13 -18 4 -21 -7 -2
-12 -20 -12 -41 0 -50 19 -154 31 -165 5 -6 9 -20 9 -33 0 -13 20 -78 44 -146
25 -67 52 -143 61 -169 8 -26 33 -84 54 -130 21 -46 58 -139 81 -208 23 -69
60 -161 81 -206 21 -44 49 -109 62 -145 22 -57 61 -136 102 -209 24 -41 122
-253 130 -280 10 -33 43 -111 55 -130 6 -8 13 -22 16 -30 4 -8 21 -46 39 -85
17 -38 37 -92 44 -120 33 -129 43 -150 105 -216 66 -72 115 -129 191 -224 27
-33 66 -78 87 -100 21 -22 38 -44 38 -50 1 -14 40 -62 40 -49 0 16 -45 95 -70
121 -11 12 -20 29 -20 38 0 9 -4 25 -10 35 -7 14 -6 18 5 16 8 -1 18 -5 21 -9
4 -4 12 -7 18 -7 6 0 4 5 -4 10 -13 8 -13 10 1 10 37 0 27 43 -16 68 -16 9
-17 11 -3 12 9 0 19 6 21 13 3 6 6 2 6 -11 1 -19 5 -22 21 -17 12 4 20 2 20
-5 0 -6 12 -10 28 -8 15 2 26 8 25 13 0 6 5 16 13 23 12 11 14 9 14 -8 0 -12
7 -20 16 -20 9 0 29 -9 45 -21 16 -11 35 -18 42 -16 7 3 5 6 -5 6 -11 1 -18 9
-18 20 0 12 -9 21 -25 25 -27 7 -33 27 -12 45 16 13 27 5 27 -19 0 -18 46 -48
56 -37 4 4 -2 10 -12 14 -35 12 -48 54 -16 51 55 -4 60 0 68 58 9 74 23 56 26
-34 1 -40 6 -72 10 -72 4 0 8 13 8 30 0 19 7 33 20 40 16 9 18 8 13 -5 -8 -23
16 -63 41 -69 14 -3 11 -4 -9 -4 -16 0 -43 0 -59 -1 -28 -1 -29 -2 -11 -21 16
-18 16 -20 1 -26 -9 -3 -25 -4 -37 -1 -15 4 -19 1 -17 -11 2 -11 11 -16 26
-14 24 4 28 -9 12 -39 -9 -16 -7 -19 15 -19 18 0 25 5 25 19 0 23 29 95 36 88
2 -2 0 -17 -6 -32 -15 -40 -6 -59 21 -45 12 7 18 18 15 26 -3 8 1 14 8 14 8 0
13 -13 14 -33 1 -29 -2 -33 -26 -32 -23 0 -28 -5 -30 -30 -3 -26 11 -30 14 -4
1 5 2 14 3 20 0 5 6 7 11 4 6 -4 9 -14 8 -23 -2 -13 7 -17 47 -20 57 -4 69
-10 37 -19 -28 -7 -24 -27 6 -31 12 -2 20 -8 17 -13 -4 -5 14 -9 39 -9 25 0
46 -4 46 -10 0 -5 -14 -10 -32 -10 -23 0 -29 -3 -21 -11 6 -6 23 -9 39 -7 23
2 30 9 32 30 l3 28 26 -30 c19 -23 31 -29 46 -24 16 5 19 3 14 -10 -5 -12 0
-16 18 -16 15 0 25 6 25 14 0 16 59 66 78 66 6 0 12 -5 14 -12 2 -6 10 -8 16
-4 19 11 14 26 -8 26 -27 0 -25 18 3 22 12 2 21 9 20 15 -1 6 13 14 32 17 38
7 45 20 19 34 -23 13 -8 34 18 26 18 -5 20 -3 14 20 -5 21 -3 26 12 26 15 0
18 -6 14 -27 -5 -28 -5 -28 15 -8 16 17 17 22 6 33 -18 18 -17 43 2 36 9 -4
18 1 22 12 10 27 36 54 50 54 15 0 17 16 3 25 -13 8 -13 55 0 55 5 0 13 -8 19
-17 8 -15 11 -10 17 25 5 34 9 40 20 31 10 -8 14 -8 14 0 0 6 6 11 14 11 8 0
17 13 21 30 8 37 23 39 31 3 9 -43 12 -50 13 -28 1 16 9 20 38 22 21 1 43 -3
50 -9 15 -12 43 6 43 28 0 8 4 14 8 14 5 0 8 -10 8 -21 -1 -12 5 -24 13 -27
11 -4 13 3 8 32 -5 34 6 50 16 24 4 -10 7 -10 14 -1 7 10 13 10 29 -3 18 -15
18 -15 -3 -9 -17 5 -23 2 -23 -9 0 -22 23 -20 45 4 10 11 22 17 26 14 20 -12
49 8 50 34 1 18 3 21 6 9 3 -11 10 -16 20 -13 8 3 20 6 26 6 7 0 4 5 -6 11
-22 13 -13 29 13 22 11 -3 20 0 20 6 0 6 -4 11 -10 11 -5 0 -10 4 -10 9 0 11
111 20 125 11 12 -8 55 -20 55 -15 0 2 -7 11 -16 19 -14 14 -14 18 0 31 13 13
18 13 45 -3 23 -13 29 -22 25 -37 -9 -29 -33 -53 -57 -57 -28 -4 -33 -24 -7
-31 13 -3 20 0 20 8 0 8 7 18 16 23 27 15 104 94 104 107 0 6 9 22 20 35 11
13 20 26 20 30 0 4 25 45 55 91 31 46 58 95 62 109 3 14 21 62 39 107 19 45
50 135 70 200 19 65 42 132 49 148 59 131 114 322 99 347 -4 5 -5 100 -4 211
4 302 4 298 -4 495 -8 162 -7 182 7 182 11 0 18 -14 22 -47 3 -27 13 -79 21
-117 8 -37 12 -78 9 -90 -4 -13 -3 -16 2 -9 6 9 14 2 25 -22 8 -19 13 -35 9
-35 -3 0 -7 -48 -9 -106 -2 -90 0 -108 16 -129 12 -15 23 -20 32 -15 14 8 9
163 -11 320 -11 90 -62 302 -89 371 -11 27 -20 59 -20 70 0 11 -5 30 -11 42
-11 20 -13 17 -30 -33 -10 -30 -18 -64 -18 -75 -1 -11 -6 -27 -11 -35 -8 -11
-9 -8 -4 12 7 30 -3 68 -17 68 -5 0 -9 -13 -9 -29 0 -26 -4 -30 -37 -35 -74
-13 -87 -12 -91 7 -2 11 3 17 16 17 27 0 33 10 21 32 -10 18 -12 18 -28 4 -22
-20 -41 -21 -41 -1 0 8 -8 15 -17 16 -13 0 -12 3 5 10 13 5 28 7 33 3 21 -12
7 19 -20 45 -22 21 -26 32 -19 45 8 13 13 15 24 5 9 -7 14 -8 14 -1 0 6 3 17
6 25 4 12 0 14 -17 10 -18 -5 -21 -3 -16 12 4 9 3 23 -3 30 -13 16 4 30 25 21
10 -3 15 1 15 11 0 13 3 14 12 5 7 -7 15 -12 18 -12 12 0 4 38 -11 56 -13 16
-12 17 13 11 30 -8 47 7 20 18 -15 6 -15 8 6 25 24 20 22 40 -3 40 -8 0 -17 5
-21 11 -5 8 1 10 19 5 14 -3 27 -3 30 2 2 4 2 2 1 -5 -2 -7 3 -10 12 -6 8 3
13 11 11 17 -3 6 2 19 10 28 11 13 12 21 3 37 -11 22 -30 28 -30 11 0 -13 -47
-13 -55 1 -11 17 4 24 25 11 11 -7 20 -10 20 -6 0 12 -30 34 -47 34 -16 1 -15
3 5 20 13 11 18 21 12 25 -5 3 -10 1 -10 -4 0 -6 -5 -11 -12 -11 -6 0 -3 9 7
20 18 20 45 27 45 13 0 -5 4 -14 9 -22 8 -12 12 -12 25 -2 11 9 16 10 16 2 0
-19 18 -12 25 9 9 28 25 25 25 -5 0 -14 4 -25 9 -25 15 0 7 54 -10 70 -13 12
-15 20 -7 34 8 14 6 18 -10 23 -26 6 -25 43 0 43 11 0 20 10 24 28 3 15 7 33
10 40 2 6 -3 12 -11 12 -8 0 -15 -7 -15 -15 0 -8 -4 -15 -9 -15 -4 0 -6 11 -4
24 3 15 10 23 18 20 8 -4 16 6 20 26 8 36 7 37 -20 42 -11 1 -19 -2 -18 -8 1
-7 -11 -14 -27 -16 -21 -3 -30 0 -30 9 0 8 5 11 10 8 6 -4 22 1 36 10 13 9 28
13 33 10 11 -6 63 20 54 28 -3 4 0 13 7 22 11 13 9 15 -14 15 -20 0 -26 5 -24
17 2 10 -4 19 -14 21 -11 2 -18 -3 -18 -12 0 -9 -8 -16 -20 -16 -11 0 -20 7
-20 15 0 8 7 15 15 15 22 0 29 25 17 58 -6 17 -6 35 -1 43 6 10 9 8 9 -9 0
-12 7 -25 15 -29 24 -8 32 7 12 21 -9 7 -17 18 -17 25 0 6 -10 11 -22 11 -13
0 -34 9 -48 20 -28 22 -56 25 -93 11 -32 -12 -88 2 -112 29 -21 23 -45 26 -45
6 0 -20 -32 -45 -37 -28 -6 16 -23 15 -23 -2 0 -8 8 -17 18 -21 14 -6 12 -9
-13 -17 -16 -5 -36 -10 -42 -10 -7 -1 -13 -10 -13 -21 0 -17 -5 -19 -35 -14
-26 4 -35 2 -35 -8 0 -17 -43 -30 -60 -20 -6 4 -20 -1 -31 -11 -10 -9 -19 -12
-19 -6 0 6 6 12 12 14 29 10 -32 27 -105 29 -60 3 -80 0 -87 -11 -9 -15 -11
-13 -22 28 -3 10 -10 8 -30 -7 -33 -26 -34 -26 -43 2 -7 20 -8 19 -12 -10 -3
-24 -7 -30 -16 -23 -56 47 -62 50 -112 50 -42 0 -59 6 -91 30 -21 16 -47 30
-57 30 -10 0 -35 11 -55 25 -24 16 -40 21 -46 15 -6 -6 -18 -10 -27 -10 -9 0
-20 -7 -23 -16 -3 -8 -10 -13 -15 -9 -6 3 -8 12 -5 19 4 10 -2 14 -20 12 -20
-1 -24 -5 -20 -19 5 -16 -1 -17 -56 -13 -56 5 -64 3 -85 -20 -18 -20 -24 -22
-29 -9 -7 19 -36 20 -36 0 0 -8 -4 -15 -10 -15 -5 0 -10 9 -10 20 0 14 -7 20
-24 20 -13 0 -29 7 -36 15 -7 8 -28 15 -47 15 -28 0 -32 3 -26 18 11 23 10 62
-2 70 -15 10 -35 50 -35 67 0 9 -4 13 -10 10 -5 -3 -10 -15 -10 -26 0 -10 -4
-19 -10 -19 -5 0 -10 7 -10 15 0 8 -7 15 -16 15 -10 0 -14 -6 -10 -15 3 -8 3
-22 0 -30 -5 -12 -8 -12 -20 -1 -12 12 -19 48 -27 129 -2 21 -17 23 -17 2 0
-20 -16 -19 -24 2 -4 9 -1 20 6 25 18 11 60 10 53 -1 -3 -5 -1 -12 3 -15 5 -3
9 4 8 15 0 11 -8 24 -16 29 -13 9 -13 11 0 20 11 7 16 5 18 -6 2 -9 10 -13 22
-9 11 3 20 0 24 -10 10 -26 26 -16 27 18 2 30 2 30 6 5 4 -24 9 -28 38 -28 18
0 41 -3 51 -7 13 -5 16 -3 11 10 -7 18 -6 19 63 23 25 1 87 6 138 10 68 5 100
3 117 -6 28 -15 145 -6 175 13 14 8 22 9 31 0 13 -13 86 1 110 23 8 8 23 14
31 14 9 0 18 3 20 8 2 4 21 16 42 27 21 11 52 32 69 47 18 18 40 28 58 28 17
0 32 6 35 15 4 8 16 15 29 15 12 0 36 7 51 15 16 8 25 15 21 15 -4 0 -3 9 3
20 6 11 16 20 22 20 6 0 29 15 52 33 59 48 112 78 121 69 4 -4 4 3 1 16 -7 21
-4 22 39 22 25 0 57 -7 70 -16 27 -18 25 -36 -3 -28 -15 5 -15 4 1 -9 12 -10
15 -17 7 -22 -7 -4 -9 -19 -5 -35 5 -21 1 -34 -14 -49 -25 -25 -26 -31 -5 -31
12 0 15 -6 10 -25 -4 -14 -4 -25 0 -25 11 0 33 28 27 34 -4 3 -2 6 4 6 6 0 11
-11 11 -25 0 -14 -5 -25 -10 -25 -12 0 -7 -41 7 -56 6 -7 13 -10 17 -8 15 9
37 -9 35 -29 -1 -14 6 -25 21 -32 12 -5 22 -18 22 -27 0 -11 8 -18 19 -18 11
0 27 -3 36 -7 15 -5 14 -8 -6 -18 l-23 -13 33 -16 c31 -17 71 -14 71 5 0 5
-10 9 -22 10 -18 1 -16 3 10 11 22 8 32 17 33 32 0 20 1 19 10 -3 5 -13 7 -32
4 -41 -4 -11 1 -20 12 -24 10 -3 24 -9 31 -12 11 -5 12 -2 2 16 -10 20 -9 21
12 18 17 -2 22 -8 20 -25 -2 -13 2 -23 7 -23 6 0 11 5 11 10 0 6 9 10 20 10
28 0 25 20 -2 20 -20 1 -19 2 7 14 18 8 39 10 51 5 27 -10 34 -3 34 31 0 14 5
31 11 37 6 6 12 31 13 55 1 24 5 48 9 55 8 13 -1 42 -21 62 -12 12 -15 12 -23
0 -8 -12 -12 -11 -23 4 -7 9 -18 17 -25 17 -6 0 -11 4 -11 8 0 4 -15 13 -32
20 l-33 13 33 14 c17 8 32 18 32 24 0 10 -54 52 -61 48 -2 -1 1 3 8 9 17 15 4
27 -14 13 -20 -17 -45 8 -36 35 3 12 6 42 5 69 -1 26 2 47 7 47 5 0 8 18 6 41
-3 28 0 42 11 46 19 7 18 23 -2 23 -11 0 -15 6 -11 20 4 16 1 18 -24 13 -19
-3 -29 -1 -29 6 0 7 -10 25 -21 41 -13 17 -20 37 -16 49 3 12 1 21 -4 21 -5 0
-9 5 -9 10 0 6 5 10 11 10 19 0 38 -27 33 -47 -7 -26 36 -41 49 -17 6 11 18
14 40 10 31 -6 31 -6 7 6 -14 6 -29 12 -34 12 -13 1 -31 34 -23 42 3 4 13 2
20 -5 11 -8 18 -6 32 9 18 20 17 20 -36 22 -88 2 -103 9 -111 51 -6 30 6 36
20 11 5 -9 15 -15 22 -12 10 3 9 8 -4 20 -21 22 -20 28 4 28 11 0 20 7 20 15
0 8 -7 15 -16 15 -8 0 -12 5 -9 11 4 6 12 8 19 6 6 -3 17 2 24 9 10 12 10 14
-3 14 -8 0 -15 8 -15 18 0 10 -7 28 -16 40 -13 19 -18 21 -31 11 -11 -9 -16
-10 -22 -1 -11 18 -35 -3 -27 -24 6 -17 6 -17 -8 -4 -9 9 -17 31 -19 50 -1 19
-7 33 -12 30 -6 -3 -9 -10 -7 -17 1 -6 -2 -14 -8 -18 -6 -4 -10 8 -10 29 0 37
-8 44 -27 25 -12 -12 -57 37 -49 56 3 8 -12 11 -45 11 -56 -1 -63 -14 -16 -36
31 -15 40 -35 15 -35 -7 0 -14 -8 -16 -17 -4 -20 14 -25 21 -5 2 6 8 9 12 5 4
-4 0 -14 -8 -23 -9 -8 -14 -22 -11 -29 7 -20 -14 -30 -31 -16 -12 10 -16 8
-24 -12 -5 -13 -16 -30 -26 -38 -10 -8 -14 -22 -11 -35 4 -16 0 -21 -17 -22
-13 -1 -17 1 -10 5 9 6 7 13 -7 25 -21 18 -110 25 -110 9 0 -10 -75 -8 -108 3
l-24 8 25 21 c21 17 24 27 20 59 -4 29 -10 37 -25 37 -16 0 -19 5 -14 23 3 12
-1 36 -10 52 -8 15 -11 31 -6 34 5 3 12 16 16 29 4 12 11 20 15 17 5 -2 11 11
14 30 6 34 19 50 91 109 20 16 36 37 36 47 0 23 19 34 33 20 8 -8 6 -11 -6
-11 -9 0 -17 -4 -17 -8 0 -11 40 -48 41 -39 1 4 2 11 3 16 0 5 4 12 8 16 9 10
-1 33 -28 63 -13 14 -29 42 -34 62 -6 21 -17 40 -24 43 -9 4 -12 14 -9 26 4
15 1 21 -12 21 -18 0 -45 23 -45 38 0 6 -6 12 -13 15 -9 3 -12 -5 -9 -31 4
-30 2 -34 -13 -28 -18 6 -45 -9 -45 -25 0 -5 11 -14 24 -19 22 -8 24 -14 24
-74 0 -36 3 -69 6 -74 7 -12 -13 -82 -28 -97 -12 -12 -96 -25 -96 -15 0 11
-54 30 -60 20 -6 -9 -72 8 -86 23 -4 4 -13 2 -20 -4 -10 -8 -23 -7 -49 1 -33
11 -102 8 -160 -6 -16 -4 -17 -3 -5 5 12 9 11 11 -7 11 -13 0 -22 -3 -22 -7 1
-5 1 -15 0 -23 -1 -12 -5 -11 -16 4 -8 11 -21 16 -30 13 -10 -5 -15 0 -15 13
0 17 -7 20 -40 20 -22 0 -40 5 -40 11 0 5 -13 3 -29 -7 -17 -10 -27 -23 -24
-31 3 -7 0 -13 -7 -13 -6 0 -14 9 -17 20 -4 15 -14 20 -40 20 -29 0 -36 5 -44
29 -9 26 -57 57 -81 52 -5 0 -8 4 -8 10 0 6 -7 9 -15 5 -10 -4 -17 4 -23 27
-5 18 -16 33 -26 35 -31 6 -65 -7 -65 -26 0 -28 -9 -73 -15 -80 -3 -3 -6 4 -6
16 0 19 -2 21 -20 10 -24 -15 -31 -9 -40 41 l-7 40 35 3 c22 2 39 10 46 23 18
31 30 42 44 37 8 -2 12 9 12 37 0 30 4 41 15 41 14 0 19 11 16 38 -1 6 3 12 8
12 6 0 18 12 28 26 16 25 16 27 -2 40 -17 13 -17 14 6 22 13 5 30 7 37 5 7 -3
12 3 12 17 0 19 -3 20 -15 10 -8 -6 -20 -10 -27 -7 -8 3 -1 9 15 16 25 10 28
16 26 46 -2 19 2 40 9 47 6 6 12 17 12 23 0 6 11 27 25 47 14 20 25 45 25 55
0 11 5 24 12 31 8 8 8 15 -1 25 -9 12 -6 16 20 21 32 6 31 26 -2 26 -27 0 -24
18 4 22 15 2 23 11 25 28 2 14 7 30 11 35 4 6 14 30 21 55 7 25 18 51 24 58 7
9 6 16 -3 22 -8 4 -11 16 -7 28 5 14 1 24 -11 31 -10 6 -13 11 -7 11 15 0 25
111 12 127 -7 9 -5 15 6 19 9 3 16 14 16 24 0 11 5 22 10 25 6 3 10 14 10 24
0 17 48 60 51 46 1 -3 2 -10 3 -17 2 -21 22 -19 52 7 18 16 39 24 57 23 18 -2
32 4 38 15 12 21 33 23 25 1 -5 -14 2 -15 54 -12 44 2 63 -1 69 -11 7 -11 11
-10 19 5 13 24 23 15 15 -14 -3 -12 -13 -22 -22 -22 -14 -1 -14 -2 2 -11 22
-13 22 -37 0 -41 -16 -3 -16 -4 0 -20 21 -21 22 -38 2 -38 -8 0 -15 -4 -15
-10 0 -5 10 -9 23 -7 16 1 22 -3 21 -15 -1 -10 2 -16 6 -13 4 3 10 -5 13 -16
3 -11 15 -23 26 -26 12 -3 21 -14 21 -25 0 -10 6 -18 13 -17 49 6 66 -2 77
-36 6 -19 18 -35 25 -35 23 0 65 -22 65 -34 0 -7 24 -10 68 -8 68 3 68 3 111
-38 35 -34 48 -41 76 -39 36 4 65 -14 66 -40 0 -10 2 -11 6 -3 7 17 23 15 23
-3 0 -8 5 -15 10 -15 6 0 10 7 10 15 0 8 5 15 10 15 6 0 10 -4 10 -10 0 -5 8
-10 18 -10 10 0 27 -7 38 -15 11 -8 41 -14 72 -15 29 0 63 -6 75 -14 12 -8 48
-16 81 -17 46 -2 60 1 68 14 10 18 58 24 58 7 0 -5 7 -7 15 -4 8 4 15 12 15
19 0 8 19 16 50 20 56 8 63 19 23 33 -27 9 -26 10 20 17 27 4 51 14 54 22 4 9
14 12 32 8 28 -6 31 -1 34 60 0 11 5 23 10 27 15 9 37 -2 37 -18 0 -23 30 -16
42 11 7 16 19 25 35 25 12 0 23 -4 23 -9 0 -4 20 -11 45 -14 25 -2 55 -13 65
-22 19 -17 20 -17 20 3 0 18 -6 22 -30 22 -16 0 -30 4 -30 9 0 15 18 22 22 9
3 -8 9 -8 24 0 18 11 18 12 -5 18 -22 7 -22 7 10 22 19 8 40 15 47 15 14 0 16
13 2 22 -5 3 -10 1 -10 -4 0 -6 -4 -11 -10 -11 -17 0 -11 58 7 68 14 8 13 12
-9 26 -32 21 -38 42 -28 98 5 23 5 44 1 46 -5 1 -6 13 -4 25 2 12 -3 31 -11
42 -11 14 -15 16 -16 6 0 -10 -7 -7 -25 9 -17 16 -22 27 -15 35 13 16 2 45
-17 45 -8 0 -12 -4 -8 -9 3 -5 1 -12 -4 -16 -6 -3 -15 4 -21 15 -6 11 -7 20
-3 20 5 0 14 14 21 30 8 18 21 30 33 30 12 0 19 7 19 20 0 32 87 68 122 49 28
-15 51 7 44 43 -3 17 -1 28 6 28 6 0 5 7 -5 18 -8 9 -19 29 -22 45 -4 15 -10
27 -14 27 -3 0 -23 16 -44 35 -21 19 -44 35 -51 35 -6 0 -30 18 -53 39 -36 35
-41 44 -41 88 0 96 0 95 -24 88 -17 -6 -20 -4 -14 10 6 17 -9 45 -24 45 -5 0
-11 -8 -13 -17 -3 -10 -5 -1 -6 19 0 20 4 49 9 63 9 24 8 26 -12 19 -21 -6
-21 -6 -5 10 9 10 17 23 17 29 0 8 -3 8 -8 2 -4 -5 -14 -10 -22 -10 -8 0 -15
-9 -16 -21 -1 -12 -4 -26 -8 -33 -11 -18 -36 -13 -36 7 0 10 -6 24 -12 30 -10
10 -10 15 1 21 8 5 11 16 8 25 -5 13 1 16 33 16 30 0 38 -3 34 -14 -4 -11 3
-14 28 -13 27 2 34 -2 36 -20 2 -13 10 -23 18 -23 8 0 12 -5 9 -10 -10 -17 5
-50 23 -50 16 1 16 2 0 14 -20 15 -23 33 -8 38 6 2 2 13 -9 25 l-20 21 25 5
c28 5 47 -13 38 -37 -4 -12 0 -16 15 -16 12 0 21 6 21 13 0 9 3 8 9 -2 6 -9
18 -11 40 -6 24 5 31 3 31 -9 0 -9 -5 -16 -12 -16 -6 0 -8 -3 -4 -7 4 -5 11
-8 16 -8 14 0 50 -47 50 -67 0 -10 7 -18 15 -18 9 0 15 -9 15 -22 0 -19 2 -20
10 -8 9 13 12 13 21 -3 6 -10 20 -22 32 -27 22 -9 22 -9 -1 -9 -27 -1 -20 -21
7 -21 19 0 41 -38 41 -70 0 -10 8 -26 17 -35 9 -10 17 -25 18 -34 0 -9 4 -22
9 -29 4 -6 9 -31 10 -54 11 -137 55 -442 71 -493 8 -22 17 -65 20 -95 4 -29
16 -74 26 -98 11 -24 19 -54 19 -66 0 -12 4 -26 10 -32 16 -16 33 -143 32
-229 -2 -135 -9 -239 -17 -260 -4 -11 -10 -29 -15 -40 -20 -53 -30 -95 -30
-126 0 -21 -8 -44 -20 -57 -13 -14 -20 -35 -20 -60 0 -21 -7 -53 -16 -71 -8
-17 -19 -57 -24 -89 -4 -31 -13 -70 -20 -87 -6 -16 -8 -31 -3 -32 8 -3 6 -127
-3 -153 -4 -13 -6 -13 -14 0 -8 13 -10 12 -10 -2 0 -10 5 -18 11 -18 7 0 8
-16 3 -45 -3 -25 -3 -53 1 -62 12 -28 5 -96 -11 -108 -14 -10 -15 -107 -1
-121 4 -4 2 -14 -5 -21 -9 -11 -9 -16 2 -23 13 -8 45 -2 36 7 -3 3 1 12 9 20
8 8 15 26 16 41 0 23 4 74 8 133 0 9 13 29 27 44 l26 28 -24 -6 c-22 -6 -23
-6 -3 9 12 9 30 13 45 9 59 -13 110 -16 110 -6 0 6 -7 11 -15 11 -8 0 -15 7
-15 15 0 8 7 15 15 15 8 0 15 5 15 10 0 6 -4 10 -9 10 -5 0 -11 10 -13 22 -2
14 -12 25 -28 29 l-25 6 27 11 c14 6 28 19 30 29 2 10 10 18 18 19 46 3 49 4
43 21 -5 13 -1 15 24 10 18 -3 35 -1 43 6 10 9 11 9 6 0 -4 -7 2 -17 13 -22
28 -15 31 -14 31 14 0 14 5 25 10 25 6 0 10 11 10 25 0 14 5 25 10 25 6 0 10
-4 10 -10 0 -18 22 -10 27 10 3 11 9 18 13 15 5 -3 6 13 4 35 -4 29 -1 40 9
40 17 0 39 62 36 98 -2 15 0 33 5 40 4 7 5 16 2 19 -3 3 -1 12 5 20 7 7 13 58
14 116 1 56 6 123 10 150 5 32 4 47 -4 47 -6 0 -11 13 -11 29 0 29 -14 49 -23
34 -5 -8 -18 -111 -21 -163 0 -14 -6 -24 -13 -23 -15 3 -16 -2 -4 -25 6 -12 3
-29 -9 -55 -10 -20 -16 -37 -12 -37 3 0 1 -5 -6 -12 -7 -7 -12 -21 -12 -33 0
-28 -25 -62 -34 -47 -12 20 -26 13 -26 -13 0 -14 5 -25 10 -25 16 0 11 -18
-12 -44 -72 -78 -87 -97 -90 -112 -1 -10 -9 -19 -17 -22 -11 -4 -12 8 -8 59 3
35 6 67 6 72 1 12 39 8 44 -5 3 -8 6 -6 6 5 1 9 6 17 13 17 6 0 3 7 -8 15 -18
14 -18 14 -1 15 11 0 23 12 30 30 6 17 15 30 19 30 4 0 8 8 8 18 0 9 7 35 15
57 8 22 14 54 15 71 0 17 7 37 15 44 11 9 12 16 5 25 -8 9 -7 14 2 17 9 3 9
11 -1 36 -7 17 -11 39 -7 48 3 9 3 21 -1 27 -4 7 -8 31 -10 55 -1 23 -6 48
-10 55 -4 6 -8 18 -10 26 -2 13 -31 36 -43 34 -3 -1 -11 3 -17 9 -9 7 -15 6
-19 -6 -3 -9 -11 -13 -16 -10 -6 4 -5 10 3 15 10 6 3 9 -20 9 -24 0 -32 4 -28
14 3 8 -5 28 -18 46 -24 33 -24 60 1 60 8 0 14 5 14 10 0 6 -4 10 -10 10 -18
0 -10 32 9 37 17 4 18 8 4 64 -18 67 -13 89 19 89 18 0 20 2 8 10 -12 7 -9 11
15 20 27 9 30 15 32 55 1 24 4 49 8 55 13 21 42 -28 64 -110 13 -47 29 -103
36 -125 7 -22 23 -85 35 -140 34 -151 50 -156 57 -18 4 89 18 153 36 164 5 4
10 41 11 83 1 50 5 77 13 81 10 3 10 11 2 32 -6 15 -12 59 -14 97 -2 37 -7 71
-10 74 -14 14 -82 5 -110 -14 -34 -24 -72 -29 -54 -8 6 7 8 18 4 24 -3 5 -1
10 4 10 6 0 11 -5 11 -10 0 -7 6 -7 20 0 24 13 25 33 4 65 -15 24 -15 25 10
35 42 16 31 29 -16 19 -46 -10 -80 -31 -141 -89 -84 -76 -107 -59 -77 58 11
44 20 104 20 132 0 29 6 64 14 78 8 15 19 46 26 70 6 24 22 53 36 64 20 18 24
31 24 74 0 31 5 56 13 63 8 6 20 30 27 53 7 24 22 50 33 59 11 9 25 38 32 65
14 57 51 87 82 68 26 -16 111 -124 124 -156 6 -16 15 -28 20 -28 5 0 9 -6 9
-14 0 -8 7 -16 15 -20 8 -3 15 -4 15 -3 0 5 -107 217 -116 229 -12 17 -51 115
-57 148 -15 68 -29 113 -42 134 -13 20 -13 26 5 59 11 20 23 54 26 77 5 30 11
40 25 40 23 0 62 37 54 50 -4 6 -1 10 6 10 10 0 25 14 87 82 4 5 24 24 45 43
20 19 37 39 37 45 0 5 11 10 24 10 14 0 28 5 31 10 3 6 26 10 50 10 48 0 57
13 44 62 -8 31 -4 38 27 38 13 0 26 5 30 11 3 6 17 9 30 6 17 -3 24 0 24 10 0
9 6 13 15 9 12 -4 14 0 9 19 -5 19 -2 25 11 25 9 0 13 5 10 10 -3 6 1 13 9 16
9 3 16 12 16 19 0 8 12 23 28 34 48 37 52 41 52 66 0 14 5 25 10 25 6 0 10 7
10 15 0 9 13 24 29 33 39 22 47 52 20 72 -11 9 -17 19 -13 23 11 11 7 102 -5
126 -7 11 -18 21 -26 21 -19 0 -19 -16 -1 -27 16 -10 27 -61 15 -69 -5 -3 -9
-26 -9 -51 0 -24 -8 -59 -17 -76 -29 -52 -126 -143 -167 -158 -21 -8 -48 -25
-60 -39 -35 -42 -140 -84 -182 -74 -29 7 -40 35 -20 50 9 6 16 19 16 29 0 17
-1 17 -18 2 -27 -25 -128 -24 -141 2 -12 22 -5 31 26 31 12 0 23 5 23 10 0 7
6 7 18 1 11 -6 24 -6 33 0 7 5 34 9 59 9 44 1 86 20 73 33 -11 11 -68 8 -80
-4 -17 -17 -41 -4 -45 23 -3 23 -27 29 -67 17 -27 -7 -23 30 6 57 27 25 28 30
26 104 -3 76 -2 78 22 84 17 4 25 13 25 27 0 22 28 64 73 109 19 18 25 30 18
35 -16 9 -3 25 22 26 17 1 18 2 4 6 -18 5 -47 52 -47 78 0 8 -5 15 -11 15 -6
0 -8 -9 -4 -20 4 -14 1 -22 -12 -27 -26 -9 -62 -55 -63 -79 0 -25 -15 -39 -52
-48 -16 -3 -28 -11 -28 -16 0 -6 -7 -10 -15 -10 -8 0 -15 -9 -15 -19 0 -25 -9
-30 -43 -24 -22 4 -27 11 -27 33 0 15 6 33 14 40 8 6 13 17 10 24 -3 7 0 23 5
37 7 17 10 19 10 7 1 -10 5 -18 10 -18 4 0 6 11 3 25 -2 14 -8 22 -13 19 -5
-3 -16 1 -24 10 -21 21 -19 29 6 16 31 -17 34 -5 3 17 -14 10 -37 28 -50 39
-25 23 -36 22 -27 -4 5 -12 2 -14 -18 -8 -13 5 -35 9 -48 10 -30 3 -52 34 -45
63 7 27 30 36 56 22 19 -10 38 -5 26 7 -9 8 -119 33 -149 34 -29 0 -57 24 -40
35 7 4 7 12 -1 25 -10 16 -9 22 6 33 18 13 18 14 -5 35 -26 25 -39 28 -39 10
0 -7 -8 -3 -18 8 -9 12 -29 24 -44 28 -16 3 -28 13 -28 20 0 8 -18 21 -41 30
-23 9 -39 22 -36 29 5 16 -36 47 -65 47 -12 0 -76 9 -140 20 -100 16 -124 24
-156 49 -25 21 -44 29 -58 25 -24 -6 -58 22 -47 39 5 8 8 8 11 -1 2 -7 13 -12
24 -12 17 0 18 3 8 15 -7 8 -18 15 -26 15 -7 0 -25 11 -40 25 -15 14 -35 25
-44 25 -9 0 -26 12 -36 26 -50 69 -129 154 -143 153 -13 -1 -12 -2 2 -6 27 -7
20 -23 -10 -22 -51 1 -157 52 -171 82 -8 17 -21 27 -35 27 -12 0 -58 14 -102
30 -44 17 -116 38 -160 46 -44 8 -93 22 -109 30 -16 8 -58 19 -93 24 -98 16
-265 58 -458 115 -108 32 -159 39 -151 20z m50 -91 c4 -10 1 -14 -6 -12 -15 5
-23 28 -10 28 5 0 13 -7 16 -16z m151 -54 c3 -6 17 -10 30 -10 13 0 27 -4 30
-10 10 -16 25 -12 25 7 0 14 4 12 25 -7 14 -13 25 -27 25 -31 0 -13 -71 -15
-88 -3 -10 7 -29 14 -42 16 -17 2 -24 8 -22 21 3 15 -8 22 -30 18 -10 -1 -10
13 -2 22 8 7 40 -8 49 -23z m256 -10 c6 0 8 -4 5 -9 -8 -12 -46 -2 -46 11 0 6
7 7 16 4 9 -3 20 -6 25 -6z m364 -61 c123 -32 247 -89 195 -89 -22 0 -146 32
-177 46 -17 8 -36 14 -42 14 -16 0 -141 63 -141 72 0 4 21 0 48 -9 26 -8 79
-23 117 -34z m-1720 21 c3 -5 -1 -10 -9 -10 -9 0 -16 5 -16 10 0 6 4 10 9 10
6 0 13 -4 16 -10z m929 -25 c11 -8 18 -17 15 -19 -2 -2 -15 4 -28 15 -27 22
-15 26 13 4z m406 5 c0 -5 -2 -10 -4 -10 -3 0 -8 5 -11 10 -3 6 -1 10 4 10 6
0 11 -4 11 -10z m-583 -21 c41 -20 63 -49 26 -34 -10 4 -27 10 -38 13 -24 6
-45 21 -45 33 0 13 9 11 57 -12z m223 -19 c0 -5 -5 -10 -11 -10 -5 0 -7 5 -4
10 3 6 8 10 11 10 2 0 4 -4 4 -10z m178 -26 c25 -17 29 -34 8 -34 -7 0 -21 11
-30 25 -19 29 -11 32 22 9z m294 -41 c6 -13 21 -23 32 -23 15 0 17 -3 8 -12
-16 -16 -15 -28 3 -28 8 0 15 -4 15 -10 0 -14 -9 -12 -55 14 -29 15 -39 27
-37 41 10 70 12 75 19 55 2 -8 9 -25 15 -37z m-917 27 c8 -13 -5 -13 -25 0
-13 8 -13 10 2 10 9 0 20 -4 23 -10z m345 -19 c0 -5 10 -13 22 -17 12 -3 36
-20 52 -36 30 -29 30 -30 6 -23 -30 8 -90 47 -90 58 0 4 -9 7 -20 7 -11 0 -20
5 -20 10 0 6 11 10 25 10 14 0 25 -4 25 -9z m-160 -67 c101 -40 163 -74 177
-98 4 -7 17 -16 28 -19 11 -3 -7 -4 -40 -3 -61 4 -146 34 -221 78 l-39 23 33
3 c30 3 37 22 8 22 -25 0 -106 41 -101 51 4 5 17 3 33 -5 15 -8 70 -32 122
-52z m603 30 c-8 -23 5 -61 32 -90 14 -15 23 -29 21 -31 -6 -6 -75 41 -76 53
0 5 -9 20 -20 32 -26 28 -25 42 2 34 16 -4 20 -2 15 10 -4 12 -1 14 13 11 11
-3 16 -11 13 -19z m-159 0 c9 -22 8 -24 -9 -24 -8 0 -15 9 -15 20 0 24 15 27
24 4z m-84 -35 c0 -5 -7 -9 -15 -9 -9 0 -15 9 -15 21 0 18 2 19 15 9 8 -7 15
-16 15 -21z m30 -15 c0 -8 -4 -12 -10 -9 -5 3 -10 10 -10 16 0 5 5 9 10 9 6 0
10 -7 10 -16z m-720 -19 c22 -26 2 -33 -57 -19 -32 8 -71 14 -86 14 -16 0 -26
4 -22 10 10 16 150 12 165 -5z m98 -22 c-3 -14 -12 -17 -38 -15 -40 4 -44 7
-35 21 3 6 22 11 41 11 28 0 35 -3 32 -17z m72 -14 c0 -10 -7 -19 -15 -19 -9
0 -15 9 -15 25 0 18 4 23 15 19 8 -4 15 -15 15 -25z m-20 -61 c0 -16 -20 -7
-30 12 -10 19 -10 20 9 8 12 -7 21 -16 21 -20z m60 22 c0 -5 -4 -10 -10 -10
-5 0 -10 5 -10 10 0 6 5 10 10 10 6 0 10 -4 10 -10z m836 -15 c10 -8 15 -14 9
-14 -5 0 -19 6 -29 14 -11 8 -15 15 -10 15 6 0 19 -7 30 -15z m-937 -39 c20
-20 44 -36 53 -36 19 0 33 -16 21 -23 -5 -3 -39 -2 -78 2 -38 4 -83 5 -100 1
l-30 -7 28 -13 c15 -7 27 -16 27 -20 0 -8 -35 -20 -56 -20 -14 0 -49 31 -57
50 -4 12 -6 11 -6 -3 -1 -15 -10 -18 -53 -17 -29 0 -64 -2 -78 -5 -17 -4 -32
0 -47 14 -26 25 -35 27 -26 5 5 -13 0 -14 -33 -8 -45 8 -56 14 -26 14 11 0 24
5 27 10 9 14 58 13 73 -2 9 -9 17 -9 36 2 15 8 41 11 65 7 23 -3 44 -1 47 4 3
5 0 9 -7 9 -6 0 -17 8 -24 17 -11 15 -5 19 49 39 89 34 146 28 195 -20z m346
14 c3 -5 1 -10 -4 -10 -6 0 -11 5 -11 10 0 6 2 10 4 10 3 0 8 -4 11 -10z m546
-17 c13 -16 12 -17 -3 -4 -10 7 -18 15 -18 17 0 8 8 3 21 -13z m-426 -13 c45
-17 18 -30 -31 -15 -25 7 -49 16 -52 19 -9 10 55 7 83 -4z m-212 -49 c25 -11
48 -24 52 -30 3 -6 11 -9 16 -6 5 4 9 2 9 -3 0 -5 11 -14 25 -20 14 -6 25 -19
25 -28 0 -12 -4 -14 -12 -7 -7 6 -29 13 -48 17 -21 4 -56 25 -85 51 -55 49
-50 55 18 26z m-588 -71 c15 -7 10 -9 -22 -9 -24 -1 -43 4 -43 9 0 12 37 12
65 0z m2845 -196 c0 -14 -3 -14 -15 -4 -8 7 -15 14 -15 16 0 2 7 4 15 4 8 0
15 -7 15 -16z m-1599 -92 c-7 -2 -18 1 -23 6 -8 8 -4 9 13 5 13 -4 18 -8 10
-11z m689 -97 c17 -9 30 -20 30 -25 0 -16 -52 -11 -72 7 -37 33 -10 45 42 18z
m-360 -105 c0 -5 -2 -10 -4 -10 -3 0 -8 5 -11 10 -3 6 -1 10 4 10 6 0 11 -4
11 -10z m1600 -21 c0 -6 -4 -7 -10 -4 -5 3 -10 11 -10 16 0 6 5 7 10 4 6 -3
10 -11 10 -16z m-16 -44 c3 -9 0 -15 -9 -15 -8 0 -15 7 -15 15 0 8 4 15 9 15
5 0 11 -7 15 -15z m-42 -7 c-9 -9 -15 -9 -24 0 -9 9 -7 12 12 12 19 0 21 -3
12 -12z m-4829 -50 l-10 -33 -1 44 c0 32 2 41 10 33 8 -8 8 -21 1 -44z m4787
28 c0 -3 -4 -8 -10 -11 -5 -3 -10 -1 -10 4 0 6 5 11 10 11 6 0 10 -2 10 -4z
m-1342 -82 c28 -8 28 -25 -2 -57 -24 -26 -25 -26 -71 -11 -39 14 -44 18 -33
32 11 13 63 41 78 41 3 1 15 -2 28 -5z m-198 -64 c0 -5 -7 -10 -15 -10 -8 0
-15 5 -15 10 0 6 7 10 15 10 8 0 15 -4 15 -10z m-1505 -431 c4 -6 5 -12 3 -14
-7 -7 -48 7 -48 16 0 13 37 11 45 -2z m229 -3 c47 -12 48 -13 22 -20 -16 -4
-49 -4 -74 0 -26 4 -60 8 -77 9 -85 4 -90 5 -76 14 21 13 149 11 205 -3z m131
-16 c3 -5 1 -10 -4 -10 -6 0 -11 5 -11 10 0 6 2 10 4 10 3 0 8 -4 11 -10z
m121 -503 c11 -11 49 -8 61 4 12 12 33 4 33 -12 0 -5 -7 -9 -15 -9 -8 0 -15
-4 -15 -10 0 -5 -8 -10 -17 -10 -17 -1 -17 -1 0 -11 9 -5 17 -17 17 -24 0 -10
10 -15 30 -15 23 0 33 -6 39 -23 5 -12 18 -23 30 -24 25 -2 111 -60 111 -75 0
-6 10 -8 26 -4 15 4 32 2 40 -5 11 -9 17 -9 28 0 10 9 15 8 20 -4 7 -20 72
-20 80 0 5 13 9 13 26 3 14 -9 22 -10 31 -1 8 8 20 8 39 1 19 -6 35 -6 49 1
23 13 31 14 30 4 -3 -20 4 -22 39 -9 70 25 142 38 181 31 34 -6 39 -4 45 17 6
23 6 23 22 3 11 -14 18 -16 21 -7 3 6 20 12 39 12 24 0 34 5 34 15 0 17 2 18
24 9 9 -3 16 -12 16 -20 0 -17 31 -19 47 -3 7 7 9 3 6 -15 -4 -17 -1 -26 7
-26 10 0 10 -3 0 -15 -14 -16 -6 -21 40 -27 19 -2 26 -10 28 -30 2 -20 9 -28
22 -28 10 0 22 -4 25 -10 3 -5 14 -10 24 -10 12 0 28 -19 47 -57 22 -43 35
-59 53 -61 19 -3 21 -6 10 -14 -11 -8 -11 -11 -1 -15 7 -3 17 -16 22 -29 5
-13 16 -24 24 -24 10 0 13 -6 9 -16 -4 -11 -13 -13 -33 -9 -16 3 -31 1 -35 -4
-3 -6 -13 -11 -22 -11 -9 0 -24 -7 -33 -15 -8 -8 -40 -17 -70 -19 -30 -3 -78
-8 -107 -11 -31 -4 -54 -2 -58 5 -10 16 -45 12 -45 -5 0 -10 -10 -15 -28 -15
-15 0 -37 -6 -48 -14 -31 -22 -99 -37 -124 -28 -27 10 -134 -8 -151 -25 -16
-16 -39 1 -39 27 0 37 -11 50 -31 39 -10 -5 -19 -16 -19 -23 0 -19 -47 -26
-61 -10 -17 20 -56 17 -79 -6 -17 -17 -24 -18 -41 -9 -26 13 -51 4 -47 -18 5
-26 -86 -68 -147 -67 -27 0 -45 -1 -38 -3 17 -6 -38 -61 -67 -67 -75 -17 -115
-15 -131 5 -13 18 -18 19 -42 8 -21 -10 -30 -10 -39 -1 -7 7 -29 12 -50 12
-32 0 -38 3 -38 21 0 16 -4 19 -20 14 -11 -3 -20 -2 -20 4 0 5 -22 17 -50 26
-37 12 -50 22 -50 36 0 26 -34 25 -61 -2 -11 -11 -27 -18 -35 -15 -9 3 -14 -1
-14 -14 0 -27 -12 -25 -43 6 -33 33 -97 65 -111 57 -17 -11 -49 -12 -86 -2
-21 5 -38 5 -44 -1 -14 -14 -65 -12 -101 4 -19 8 -38 10 -53 5 -16 -6 -30 -4
-47 7 -14 9 -26 14 -26 10 -1 -3 -2 -11 -3 -18 -2 -18 -26 -22 -26 -4 0 9 -6
17 -12 17 -7 1 -28 3 -46 5 -18 1 -48 11 -67 23 -20 11 -37 16 -40 10 -4 -6
-13 -5 -25 1 -12 7 -19 24 -22 55 -3 39 1 50 29 82 29 34 32 36 33 16 0 -36
27 -17 52 39 12 27 24 45 26 39 5 -15 29 -14 35 2 3 9 8 9 21 -2 19 -16 35 -6
18 11 -14 14 3 39 22 32 7 -3 18 2 25 10 7 8 19 12 27 9 17 -6 46 15 38 29 -3
5 -14 6 -24 3 -10 -3 -21 -1 -25 5 -3 5 0 10 7 11 7 0 28 2 46 5 17 2 32 -1
32 -6 0 -15 17 -12 35 6 10 10 24 14 40 10 20 -5 23 -3 18 11 -5 16 -4 16 9
-1 17 -22 38 -14 38 14 0 37 19 30 30 -12 10 -34 14 -39 21 -25 6 11 6 23 -2
35 -10 16 -9 23 8 41 18 19 22 20 33 6 17 -21 40 -19 40 4 0 14 10 20 42 25
23 4 48 11 54 17 9 7 19 6 33 -3 19 -11 24 -10 44 13 25 30 72 47 63 23 -3 -8
-2 -14 3 -14 15 0 33 29 27 45 -6 18 19 21 30 3 5 -7 10 -4 15 10 6 16 17 22
40 22 19 0 37 8 48 21 22 27 147 47 167 26z m1434 -62 c0 -8 -4 -15 -9 -15 -5
0 -14 7 -21 15 -10 13 -9 15 9 15 12 0 21 -6 21 -15z m88 8 c-18 -5 -25 -23
-9 -23 5 0 11 -9 14 -20 3 -14 0 -20 -11 -20 -8 0 -12 3 -9 7 4 3 0 11 -9 17
-21 16 -7 46 20 45 16 -1 17 -2 4 -6z m-1858 -17 c0 -3 -4 -8 -10 -11 -5 -3
-10 -1 -10 4 0 6 5 11 10 11 6 0 10 -2 10 -4z m1657 -2 c-3 -3 -12 -4 -19 -1
-8 3 -5 6 6 6 11 1 17 -2 13 -5z m32 -32 c-40 -11 -41 -11 -25 -28 9 -8 16
-29 16 -45 0 -25 -4 -29 -27 -29 -26 1 -26 2 -10 14 15 12 16 16 3 41 -14 26
-13 29 7 45 12 10 28 15 36 12 13 -5 13 -6 0 -10z m-89 -49 c0 -39 -26 -16
-27 25 -1 34 0 35 13 17 8 -10 14 -29 14 -42z m310 42 c0 -8 -4 -15 -9 -15 -5
0 -11 7 -15 15 -3 9 0 15 9 15 8 0 15 -7 15 -15z m-135 -4 c3 -5 1 -12 -5 -16
-5 -3 -10 1 -10 9 0 18 6 21 15 7z m102 -37 c-9 -9 -28 6 -21 18 4 6 10 6 17
-1 6 -6 8 -13 4 -17z m42 -16 c-1 -31 -1 -31 -8 -8 -5 14 -6 28 -4 33 9 15 13
6 12 -25z m-65 -21 c7 -6 4 -7 -7 -3 -10 3 -33 6 -50 7 l-32 1 35 12 c25 9 36
10 39 2 2 -6 9 -15 15 -19z m-284 -41 c0 -14 -5 -28 -12 -32 -8 -5 -9 -2 -5
11 4 9 2 24 -4 31 -9 11 -8 14 5 14 10 0 16 -9 16 -24z m300 -18 c0 -5 -7 -8
-15 -8 -10 0 -15 10 -15 27 0 26 1 26 15 7 8 -10 15 -22 15 -26z m-193 0 c-3
-8 -6 -5 -6 6 -1 11 2 17 5 13 3 -3 4 -12 1 -19z m-47 -28 c0 -9 -23 -30 -32
-30 -4 0 -8 8 -8 18 0 11 7 18 20 18 11 0 20 -3 20 -6z m-2333 -86 c-3 -3 -12
-4 -19 -1 -8 3 -5 6 6 6 11 1 17 -2 13 -5z m-177 -183 c0 -26 -3 -30 -27 -28
-35 3 -41 23 -8 31 14 4 25 11 25 16 0 6 2 10 5 10 3 0 5 -13 5 -29z m4 -96
c-7 -16 -24 -21 -24 -6 0 8 7 13 27 20 1 1 0 -6 -3 -14z m80 0 c3 -8 1 -15 -4
-15 -6 0 -10 7 -10 15 0 8 2 15 4 15 2 0 6 -7 10 -15z m1863 -51 c-3 -3 -12
-4 -19 -1 -8 3 -5 6 6 6 11 1 17 -2 13 -5z m-784 -161 c-7 -2 -19 -2 -25 0 -7
3 -2 5 12 5 14 0 19 -2 13 -5z m2647 -323 c0 -5 -4 -10 -10 -10 -5 0 -10 5
-10 10 0 6 5 10 10 10 6 0 10 -4 10 -10z m-4773 -92 c-3 -8 -6 -5 -6 6 -1 11
2 17 5 13 3 -3 4 -12 1 -19z m4743 -15 c0 -10 -42 -53 -52 -53 -4 0 -8 9 -8
20 0 13 7 20 20 20 11 0 20 5 20 10 0 6 5 10 10 10 6 0 10 -3 10 -7z m-1189
-50 c64 -36 62 -58 -6 -91 -27 -13 -58 -28 -67 -33 -27 -14 -38 -11 -38 11 0
11 5 20 10 20 6 0 10 11 10 25 0 23 29 95 38 95 2 0 26 -12 53 -27z m-2386 7
c3 -6 -1 -7 -9 -4 -18 7 -21 14 -7 14 6 0 13 -4 16 -10z m233 -12 c6 -6 15
-28 18 -49 7 -44 7 -43 33 -27 26 16 53 3 49 -24 -3 -24 -36 -37 -47 -19 -8
12 -96 -13 -107 -30 -3 -5 -18 -9 -35 -9 -25 0 -28 3 -19 18 16 29 40 111 40
138 0 24 3 25 27 19 16 -4 34 -11 41 -17z m1631 -4 c6 4 15 -2 20 -13 17 -31
14 -32 -24 -10 -19 12 -35 26 -35 31 0 6 6 6 15 -2 8 -6 19 -9 24 -6z m-133
-41 c11 -12 13 -18 5 -21 -19 -6 -41 6 -41 23 0 20 14 19 36 -2z m128 1 c9 -3
16 -11 16 -16 0 -6 -7 -5 -15 2 -12 10 -19 10 -27 2 -9 -9 -6 -12 13 -13 13
-1 30 -1 37 0 15 2 52 -40 46 -51 -3 -5 -18 -1 -34 7 -16 8 -34 15 -40 15 -16
0 -51 40 -45 50 7 11 26 13 49 4z m-2164 -24 c-13 -8 -13 -11 3 -27 13 -13 17
-14 17 -3 0 10 3 11 10 4 15 -15 1 -44 -20 -44 -29 0 -45 27 -32 55 7 14 17
25 24 25 9 0 8 -3 -2 -10z m3711 -79 c-8 -5 -14 -28 -14 -60 -1 -35 -5 -51
-14 -51 -18 0 -17 54 2 90 9 17 21 30 28 30 8 0 8 -3 -2 -9z m-1288 -28 c-7
-2 -19 -2 -25 0 -7 3 -2 5 12 5 14 0 19 -2 13 -5z m537 -14 c0 -6 -4 -7 -10
-4 -5 3 -10 11 -10 16 0 6 5 7 10 4 6 -3 10 -11 10 -16z m-1796 -48 c3 -4 -1
-17 -9 -27 -14 -18 -14 -18 -15 9 0 26 13 36 24 18z m-431 -125 c18 -4 27 -13
27 -26 0 -16 7 -20 30 -20 20 0 30 5 30 15 0 21 30 31 41 14 6 -10 9 -10 9 -1
0 12 35 52 46 52 7 0 34 -27 34 -34 0 -3 -7 -6 -15 -6 -8 0 -15 5 -15 10 0 6
-4 10 -10 10 -14 0 -12 -27 3 -33 22 -10 -15 -26 -45 -20 -35 7 -38 -14 -4
-23 16 -4 23 -11 19 -20 -3 -8 1 -14 8 -15 8 -1 3 -4 -11 -9 -23 -7 -24 -8 -6
-15 13 -6 21 -4 24 3 2 7 15 12 29 12 26 0 26 0 8 -20 -11 -13 -25 -18 -37
-14 -26 8 -24 -26 3 -55 l22 -23 -23 7 c-31 10 -41 -10 -34 -62 5 -35 3 -43
-10 -43 -8 0 -20 -8 -25 -19 -6 -10 -22 -22 -36 -25 -16 -4 -25 -13 -25 -26 0
-11 -9 -24 -20 -30 -14 -7 -20 -20 -18 -38 1 -15 -2 -38 -7 -52 -5 -14 -9 -38
-9 -55 -1 -22 -8 -33 -28 -43 -22 -10 -28 -20 -28 -45 0 -26 -9 -40 -46 -72
-25 -22 -50 -48 -55 -57 -11 -20 -1 -50 14 -41 6 4 -1 -14 -16 -39 -19 -33
-23 -48 -14 -51 9 -3 9 -9 -1 -26 -11 -19 -10 -24 11 -44 20 -19 22 -25 12
-44 -24 -47 -77 -88 -61 -48 3 8 1 15 -4 15 -6 0 -10 -6 -10 -14 0 -25 12 -46
26 -46 8 0 14 -5 14 -11 0 -6 -7 -9 -15 -5 -8 3 -15 1 -15 -4 0 -6 8 -10 17
-10 13 0 14 -3 5 -12 -9 -9 -8 -16 4 -30 15 -16 15 -18 -1 -24 -10 -4 -20 -1
-25 7 -8 11 -10 11 -15 -1 -4 -11 -22 -15 -63 -16 -31 0 -51 1 -44 3 17 6 15
23 -3 23 -8 0 -15 5 -15 11 0 7 8 9 23 4 48 -15 67 -17 84 -10 10 5 21 7 26 7
4 -1 7 3 7 8 0 12 -40 13 -59 1 -10 -6 -22 -1 -40 15 -14 13 -32 24 -39 24 -7
0 -15 7 -18 15 -7 18 -24 10 -24 -11 0 -8 7 -14 16 -14 9 0 14 -6 11 -12 -2
-7 -13 -12 -25 -11 -13 2 -22 -5 -27 -20 l-8 -22 -4 23 c-2 12 -9 22 -14 22
-5 0 -9 -10 -10 -22 l0 -23 -11 23 c-14 28 -48 30 -48 3 0 -26 -20 -38 -34
-19 -6 8 -19 17 -29 21 -27 10 -10 28 19 21 28 -7 30 -1 7 26 -21 24 -36 25
-56 5 -23 -22 -103 -6 -100 20 1 11 -3 27 -8 37 -10 19 -44 24 -53 9 -3 -5
-15 -7 -26 -4 -12 3 -28 -1 -38 -9 -15 -13 -19 -13 -34 3 -9 9 -14 20 -11 23
4 3 7 19 7 36 1 24 -3 30 -19 30 -24 0 -40 -10 -48 -30 -3 -9 -6 -4 -6 12 -1
17 4 27 11 25 7 -1 14 8 16 21 2 12 -1 22 -6 22 -5 0 -9 22 -9 49 1 28 -1 52
-4 55 -2 3 -23 -1 -44 -9 -45 -15 -55 -12 -55 16 0 13 -7 19 -23 19 -13 0 -27
4 -33 10 -6 6 -8 -5 -6 -30 2 -22 -3 -58 -12 -80 -9 -22 -13 -40 -9 -40 3 0 4
-2 1 -5 -3 -3 -13 -3 -22 1 -21 8 -21 42 1 46 14 2 12 8 -11 33 l-28 30 6 -35
c2 -19 2 -29 -1 -22 -2 6 -13 12 -24 12 -15 0 -19 7 -19 30 0 24 -7 35 -30 48
-40 23 -38 34 5 26 23 -4 35 -2 35 5 0 6 -11 11 -25 11 -19 0 -25 5 -25 21 0
18 -4 21 -30 16 -36 -8 -45 4 -42 58 2 26 0 35 -6 27 -7 -11 -11 -10 -16 4 -9
23 2 54 20 54 11 0 13 4 6 16 -5 9 -8 26 -6 38 3 12 2 16 -1 10 -3 -6 -17 -9
-30 -6 -14 2 -22 8 -19 14 3 5 14 6 24 3 12 -4 26 2 39 16 12 13 21 18 21 12
0 -6 9 -9 20 -6 11 3 20 14 20 24 0 22 -12 24 -40 7 -28 -18 -42 0 -34 42 l7
33 18 -21 c9 -12 22 -22 27 -22 11 0 25 37 22 63 -1 12 6 17 25 17 15 0 24 -4
20 -10 -10 -16 26 -24 46 -11 15 9 19 8 19 -4 0 -8 7 -15 16 -15 10 0 14 5 10
15 -5 15 21 55 35 55 4 0 10 -8 12 -17 3 -10 5 1 6 25 1 35 4 42 21 42 13 0
20 -7 20 -19 0 -11 5 -23 11 -27 8 -4 9 1 4 16 -7 22 6 40 30 40 6 0 3 -5 -5
-10 -8 -5 -10 -10 -4 -10 5 0 19 7 30 15 10 8 27 15 37 15 21 0 23 20 2 20 -8
0 -15 7 -15 15 0 8 6 12 14 9 8 -3 17 -1 21 5 3 6 14 11 24 11 10 0 30 9 44
20 27 21 57 27 57 10 0 -6 -7 -13 -15 -16 -21 -8 -19 -21 5 -27 10 -3 25 2 32
10 7 9 23 13 40 11 16 -3 33 1 40 9 8 9 14 10 23 3 10 -8 17 -7 26 3 8 8 21
12 31 9 10 -2 25 2 34 9 13 10 17 10 24 0 6 -10 12 -9 29 8 11 11 26 21 32 21
5 0 7 5 4 10 -3 6 -1 10 4 10 6 0 11 -7 11 -16 0 -14 3 -14 15 -4 13 11 18 10
30 -6 14 -18 14 -18 15 -1 0 11 9 21 20 24 11 3 20 9 20 13 0 14 32 21 46 9
11 -9 14 -8 14 3 0 18 69 33 83 19 13 -13 37 -2 37 15 0 14 49 20 108 15 19
-2 23 3 22 21 -3 38 -1 42 18 26 9 -8 29 -18 45 -22z m187 -82 c0 -8 -4 -14
-10 -14 -5 0 -10 9 -10 21 0 11 5 17 10 14 6 -3 10 -13 10 -21z m1657 10 c-3
-3 -12 -4 -19 -1 -8 3 -5 6 6 6 11 1 17 -2 13 -5z m1273 -104 c0 -5 -7 -10
-16 -10 -8 0 -12 5 -9 10 3 6 10 10 16 10 5 0 9 -4 9 -10z m-4103 -16 c11 -29
-12 -35 -35 -9 l-22 25 25 0 c14 0 28 -7 32 -16z m-172 -144 c3 -5 -1 -10 -10
-10 -9 0 -13 5 -10 10 3 6 8 10 10 10 2 0 7 -4 10 -10z m1265 -43 c0 -7 -9
-18 -19 -24 -12 -8 -17 -19 -14 -31 2 -11 0 -22 -5 -26 -6 -3 -12 10 -14 30
-3 29 -1 38 14 42 10 2 18 8 18 13 0 5 5 9 10 9 6 0 10 -6 10 -13z m-1400 -7
c0 -5 -4 -10 -10 -10 -5 0 -10 5 -10 10 0 6 5 10 10 10 6 0 10 -4 10 -10z
m-793 -82 c-3 -7 -5 -2 -5 12 0 14 2 19 5 13 2 -7 2 -19 0 -25z m5023 2 c0
-18 -3 -19 -20 -10 -11 6 -20 15 -20 20 0 6 9 10 20 10 13 0 20 -7 20 -20z
m-4615 -40 c-3 -10 0 -28 7 -39 7 -11 9 -23 5 -27 -11 -12 -16 -1 -24 51 -4
36 -3 46 6 41 6 -4 9 -16 6 -26z m1695 -51 c0 -6 -4 -7 -10 -4 -5 3 -10 11
-10 16 0 6 5 7 10 4 6 -3 10 -11 10 -16z m2910 -5 c0 -16 -16 -19 -25 -4 -8
13 4 32 16 25 5 -4 9 -13 9 -21z m-4363 -116 c-3 -8 -6 -5 -6 6 -1 11 2 17 5
13 3 -3 4 -12 1 -19z m55 0 c-9 -9 -15 -9 -24 0 -9 9 -7 12 12 12 19 0 21 -3
12 -12z m1438 -9 c0 -5 -7 -9 -15 -9 -15 0 -20 12 -9 23 8 8 24 -1 24 -14z
m-76 -61 c-9 -14 -23 2 -17 18 4 12 8 13 14 3 4 -7 5 -17 3 -21z m3266 -8 c0
-12 -28 -70 -34 -70 -2 0 1 18 6 40 9 36 28 56 28 30z m-4810 -10 c0 -5 -5
-10 -11 -10 -5 0 -7 5 -4 10 3 6 8 10 11 10 2 0 4 -4 4 -10z m-30 -10 c0 -5
-4 -10 -10 -10 -5 0 -10 5 -10 10 0 6 5 10 10 10 6 0 10 -4 10 -10z m1612 -20
c3 -19 1 -29 -6 -27 -6 2 -10 11 -8 21 2 9 -2 16 -8 16 -6 0 -8 5 -5 10 11 19
23 10 27 -20z m2927 -26 c39 -20 40 -55 1 -64 -17 -4 -21 -8 -12 -14 20 -12
14 -34 -10 -38 -16 -2 -24 -12 -28 -32 -4 -26 -7 -27 -18 -13 -24 29 -6 177
22 177 7 0 27 -7 45 -16z m-4509 -14 c0 -5 7 -10 15 -10 8 0 15 5 15 10 0 6 5
10 10 10 13 0 13 -47 -1 -55 -5 -4 -18 0 -28 9 -10 9 -23 16 -29 16 -7 0 -12
7 -12 15 0 8 7 15 15 15 8 0 15 -4 15 -10z m150 -10 c0 -5 -4 -10 -10 -10 -5
0 -10 5 -10 10 0 6 5 10 10 10 6 0 10 -4 10 -10z m1250 -51 c0 -5 -4 -9 -10
-9 -5 0 -10 7 -10 16 0 8 5 12 10 9 6 -3 10 -10 10 -16z m-1075 -11 c-11 -36
-18 -38 -45 -18 -20 16 -22 20 -7 20 9 0 17 5 17 10 0 6 9 10 21 10 16 0 19
-4 14 -22z m35 -7 c0 -5 2 -24 6 -42 l5 -34 -20 35 c-24 43 -25 50 -6 50 8 0
15 -4 15 -9z m1055 -11 c3 -5 1 -10 -4 -10 -6 0 -11 5 -11 10 0 6 2 10 4 10 3
0 8 -4 11 -10z m-1005 -69 c0 -6 -4 -13 -10 -16 -5 -3 -10 1 -10 9 0 9 5 16
10 16 6 0 10 -4 10 -9z m97 3 c-3 -3 -12 -4 -19 -1 -8 3 -5 6 6 6 11 1 17 -2
13 -5z m43 -3 c0 -6 -4 -13 -10 -16 -5 -3 -10 -16 -10 -28 -1 -22 -1 -22 -16
-2 -13 18 -13 20 0 23 9 2 16 10 16 18 0 8 5 14 10 14 6 0 10 -4 10 -9z m-500
-31 c0 -5 -4 -10 -10 -10 -5 0 -10 5 -10 10 0 6 5 10 10 10 6 0 10 -4 10 -10z
m4365 -30 c-5 -30 -3 -44 9 -56 15 -15 21 -34 11 -34 -13 0 -45 42 -45 59 0
24 17 71 26 71 3 0 3 -18 -1 -40z m-3775 20 c0 -5 -7 -10 -16 -10 -8 0 -12 5
-9 10 3 6 10 10 16 10 5 0 9 -4 9 -10z m-623 -22 c-3 -8 -6 -5 -6 6 -1 11 2
17 5 13 3 -3 4 -12 1 -19z m580 -3 c8 -9 12 -19 8 -23 -4 -4 -10 -1 -12 6 -3
6 -11 12 -19 12 -9 0 -12 5 -9 10 8 14 14 13 32 -5z m-121 -61 c-16 -11 -22
-11 -28 -1 -12 18 -10 25 10 30 28 6 40 -12 18 -29z m-479 -36 c-3 -8 -6 -5
-6 6 -1 11 2 17 5 13 3 -3 4 -12 1 -19z m53 -10 c0 -16 -3 -19 -11 -11 -6 6
-8 16 -5 22 11 17 16 13 16 -11z m4427 16 c-3 -3 -12 -4 -19 -1 -8 3 -5 6 6 6
11 1 17 -2 13 -5z m-3700 -26 c-3 -8 -6 -5 -6 6 -1 11 2 17 5 13 3 -3 4 -12 1
-19z m-96 2 c36 0 80 -36 60 -49 -8 -5 -12 -18 -8 -30 7 -28 -7 -27 -31 3 -13
17 -26 23 -39 20 -12 -3 -24 -1 -27 5 -4 6 -2 11 3 11 6 0 11 7 11 15 0 8 -9
15 -20 15 -11 0 -20 5 -20 11 0 7 9 9 23 5 12 -3 34 -6 48 -6z m142 -30 c-7
-28 -13 -25 -13 6 0 14 4 23 9 20 5 -3 7 -15 4 -26z m482 -40 c3 -5 -3 -10
-15 -10 -12 0 -18 5 -15 10 3 6 10 10 15 10 5 0 12 -4 15 -10z m48 -14 c9 -7
17 -21 17 -30 0 -13 -5 -11 -25 10 -14 15 -25 29 -25 30 0 8 16 3 33 -10z
m-656 -38 c-3 -8 -6 -5 -6 6 -1 11 2 17 5 13 3 -3 4 -12 1 -19z m-665 -13 c-2
-14 -6 -25 -8 -25 -2 0 -4 11 -4 25 0 14 4 25 9 25 4 0 6 -11 3 -25z m621 -2
c-7 -2 -19 -2 -25 0 -7 3 -2 5 12 5 14 0 19 -2 13 -5z m247 -33 c0 -5 -7 -10
-15 -10 -8 0 -15 5 -15 10 0 6 7 10 15 10 8 0 15 -4 15 -10z m1878 -16 c2 -1
-9 -1 -23 -1 -25 0 -31 7 -18 20 3 4 13 1 22 -5 9 -7 17 -13 19 -14z m-2741
-16 c-3 -8 -6 -5 -6 6 -1 11 2 17 5 13 3 -3 4 -12 1 -19z m2342 -105 c-15 -18
-69 -17 -69 1 0 7 10 20 23 29 20 13 24 13 39 -1 14 -11 15 -18 7 -29z m-159
-3 c0 -26 -49 -48 -62 -28 -13 21 -9 28 16 28 14 0 28 5 31 10 10 16 15 12 15
-10z m313 -6 c-5 -14 -1 -15 25 -9 21 4 32 3 32 -4 0 -14 -57 -14 -65 -1 -3 6
-3 15 0 20 10 16 15 12 8 -6z m157 -44 c0 -5 -5 -10 -11 -10 -5 0 -7 5 -4 10
3 6 8 10 11 10 2 0 4 -4 4 -10z m40 -20 c0 -5 -2 -10 -4 -10 -3 0 -8 5 -11 10
-3 6 -1 10 4 10 6 0 11 -4 11 -10z m65 -30 c3 -5 -1 -10 -9 -10 -9 0 -16 5
-16 10 0 6 4 10 9 10 6 0 13 -4 16 -10z m-520 -172 c314 6 283 10 301 -36 8
-20 19 -45 24 -54 7 -12 7 -18 0 -18 -5 0 -19 -9 -29 -19 -19 -19 -19 -19 1
-24 11 -3 28 -1 38 5 9 6 26 8 36 4 18 -7 18 -9 -3 -23 -13 -9 -23 -23 -23
-32 -1 -15 -2 -15 -13 1 -11 14 -20 15 -60 5 -28 -6 -47 -16 -47 -24 0 -8 -4
-11 -10 -8 -5 3 -10 14 -10 25 0 11 -10 20 -25 24 -14 4 -25 11 -25 17 0 8 -5
7 -15 -1 -8 -7 -21 -10 -28 -7 -7 3 -21 -1 -31 -8 -22 -17 -47 -9 -39 12 5 11
1 14 -13 9 -10 -3 -32 1 -48 9 -36 19 -56 19 -56 0 0 -9 -6 -12 -15 -9 -11 5
-15 -2 -15 -26 0 -21 -4 -30 -12 -27 -7 2 -12 14 -11 26 2 11 -1 20 -5 19 -16
-4 -91 23 -95 35 -3 9 -13 8 -37 -5 -34 -19 -62 -22 -122 -12 -31 5 -38 11
-43 36 -4 17 -2 35 3 40 6 6 8 17 5 24 -4 10 4 14 23 15 16 1 55 3 87 4 33 2
64 8 70 14 15 15 50 14 41 -1 -5 -8 -2 -9 12 -4 43 18 55 18 68 0 13 -17 14
-17 21 5 5 18 11 21 28 15 12 -4 45 -7 72 -6z m-2050 -88 c3 -5 1 -10 -4 -10
-6 0 -11 5 -11 10 0 6 2 10 4 10 3 0 8 -4 11 -10z m2145 -110 c0 -5 -2 -10 -4
-10 -3 0 -8 5 -11 10 -3 6 -1 10 4 10 6 0 11 -4 11 -10z m-1060 -121 c0 -11
-4 -17 -10 -14 -5 3 -10 13 -10 21 0 8 5 14 10 14 6 0 10 -9 10 -21z m200 -80
c0 -11 -27 -12 -34 0 -3 4 -3 11 0 14 8 8 34 -3 34 -14z m1588 -3 c-7 -8 -15
-12 -17 -11 -5 6 10 25 20 25 5 0 4 -6 -3 -14z m92 -60 c0 -3 -4 -8 -10 -11
-5 -3 -10 -1 -10 4 0 6 5 11 10 11 6 0 10 -2 10 -4z m-1690 -20 c8 -11 9 -20
1 -33 -9 -16 -10 -15 -11 9 0 14 -6 29 -12 31 -8 4 -9 6 -2 6 6 1 17 -6 24
-13z m1731 -23 c12 -15 12 -16 -4 -10 -10 4 -23 7 -28 7 -5 0 -9 5 -9 10 0 16
26 12 41 -7z m286 -39 c-9 -9 -28 6 -21 18 4 6 10 6 17 -1 6 -6 8 -13 4 -17z
m-2947 -324 c0 -5 -4 -10 -9 -10 -6 0 -13 5 -16 10 -3 6 1 10 9 10 9 0 16 -4
16 -10z m2787 -86 c-3 -3 -12 -4 -19 -1 -8 3 -5 6 6 6 11 1 17 -2 13 -5z
m-187 -283 c0 -9 -24 -21 -41 -21 -16 0 -10 18 9 23 28 8 32 7 32 -2z m110 -6
c0 -8 -4 -15 -10 -15 -5 0 -10 7 -10 15 0 8 5 15 10 15 6 0 10 -7 10 -15z
m115 -125 c17 -7 14 -9 -13 -9 -20 -1 -31 3 -27 9 7 12 13 12 40 0z m-175 -28
c0 -10 -41 -35 -47 -28 -7 7 20 35 35 36 6 0 12 -3 12 -8z m180 -12 c0 -11 -4
-20 -10 -20 -5 0 -10 9 -10 20 0 11 5 20 10 20 6 0 10 -9 10 -20z m-180 -106
c0 -9 -5 -14 -12 -12 -18 6 -21 28 -4 28 9 0 16 -7 16 -16z m130 -54 c0 -14
-50 -32 -69 -25 -12 5 -10 9 9 20 30 16 60 19 60 5z m-545 -130 c3 -5 -1 -10
-10 -10 -9 0 -13 5 -10 10 3 6 8 10 10 10 2 0 7 -4 10 -10z m235 -63 c0 -4 -9
-3 -20 3 -11 6 -20 15 -20 20 0 6 9 5 20 -2 11 -7 20 -16 20 -21z m-2945 -107
c-3 -5 -12 -10 -18 -10 -7 0 -6 4 3 10 19 12 23 12 15 0z m3102 -86 c-3 -3
-12 -4 -19 -1 -8 3 -5 6 6 6 11 1 17 -2 13 -5z m-48 -87 c6 -8 8 -17 4 -20 -7
-8 -33 11 -33 24 0 13 16 11 29 -4z m-3139 -14 c-1 -18 -18 -35 -24 -24 -4 6
-4 16 -1 21 7 12 25 13 25 3z m2837 -49 c-3 -3 -12 -4 -19 -1 -8 3 -5 6 6 6
11 1 17 -2 13 -5z m463 -13 c0 -15 -74 -20 -88 -6 -11 10 -4 13 37 13 28 1 51
-2 51 -7z m-39 -84 c-8 -8 -11 -7 -11 4 0 9 3 19 7 23 4 4 9 2 11 -4 3 -7 -1
-17 -7 -23z m-1781 -1568 c0 -14 20 -33 43 -42 10 -4 15 -12 12 -17 -10 -17
-69 22 -73 48 -2 12 1 22 7 22 6 0 11 -5 11 -11z m-60 -133 c0 -3 -4 -8 -10
-11 -5 -3 -10 -1 -10 4 0 6 5 11 10 11 6 0 10 -2 10 -4z m7 -42 c-3 -3 -12 -4
-19 -1 -8 3 -5 6 6 6 11 1 17 -2 13 -5z m49 -10 c-9 -8 -21 -12 -27 -8 -13 7
7 24 29 24 10 0 10 -4 -2 -16z m-56 -25 c0 -5 -4 -9 -10 -9 -5 0 -10 7 -10 16
0 8 5 12 10 9 6 -3 10 -10 10 -16z m883 -42 c-10 -57 -33 -63 -39 -11 -3 29
14 54 33 47 8 -3 10 -16 6 -36z m-908 23 c3 -5 -1 -10 -10 -10 -9 0 -13 5 -10
10 3 6 8 10 10 10 2 0 7 -4 10 -10z m145 -20 c0 -5 -5 -10 -11 -10 -5 0 -7 5
-4 10 3 6 8 10 11 10 2 0 4 -4 4 -10z m-134 -48 c1 -7 0 -8 -3 -2 -3 6 -11 7
-23 0 -19 -10 -36 1 -23 14 11 11 46 2 49 -12z m384 8 c0 -5 -4 -10 -10 -10
-5 0 -10 5 -10 10 0 6 5 10 10 10 6 0 10 -4 10 -10z m425 -20 c3 -5 1 -10 -4
-10 -6 0 -11 5 -11 10 0 6 2 10 4 10 3 0 8 -4 11 -10z m716 -27 c-9 -16 -10
-14 -11 12 0 21 3 26 11 18 8 -8 8 -16 0 -30z m-1276 7 c3 -5 -1 -10 -9 -10
-9 0 -17 -8 -17 -17 -1 -17 -2 -17 -6 0 -6 24 -23 21 -23 -5 0 -17 -3 -19 -12
-10 -9 9 -7 16 7 32 19 21 50 27 60 10z m115 -31 c0 -9 9 -24 19 -33 12 -11
17 -25 13 -34 -5 -15 -3 -15 10 -4 14 11 19 8 33 -23 17 -34 17 -36 -4 -54
-11 -10 -21 -23 -21 -28 0 -16 -22 -32 -36 -26 -16 6 -19 23 -3 23 11 0 39 24
39 34 0 15 -47 4 -63 -14 -21 -25 -39 -26 -36 -2 4 40 -1 45 -20 24 -19 -22
-34 -20 -25 3 3 7 1 16 -4 19 -6 3 -13 -12 -17 -34 -6 -35 -9 -39 -26 -30 -14
8 -16 15 -9 34 5 13 6 33 3 44 -2 11 0 23 6 26 6 4 11 16 11 27 0 10 6 19 13
19 20 0 66 24 71 36 5 13 -41 6 -50 -7 -7 -12 -34 -12 -34 0 0 10 47 25 67 22
6 -1 14 3 18 9 9 14 45 -11 45 -31z m-314 22 c-5 -8 -56 -3 -56 5 0 2 14 4 31
4 16 0 28 -4 25 -9z m1563 -37 c-11 -25 -13 -27 -17 -9 -2 11 -9 24 -16 28 -6
5 -1 6 12 2 17 -5 22 -2 23 12 0 10 3 13 5 7 3 -6 -1 -24 -7 -40z m-1537 11
c-2 -14 -6 -25 -8 -25 -2 0 -4 11 -4 25 0 14 4 25 9 25 4 0 6 -11 3 -25z m-72
-9 c0 -14 -5 -28 -11 -31 -15 -10 -25 3 -12 16 6 6 9 18 6 25 -3 8 0 14 6 14
6 0 11 -11 11 -24z m410 15 c0 -6 15 -24 33 -40 17 -17 26 -31 19 -31 -7 0
-20 9 -29 19 -9 11 -22 17 -29 14 -10 -3 -14 3 -14 21 0 14 5 26 10 26 6 0 10
-4 10 -9z m-460 -10 c0 -6 -4 -13 -10 -16 -5 -3 -10 1 -10 9 0 9 5 16 10 16 6
0 10 -4 10 -9z m925 -11 c3 -5 -1 -10 -10 -10 -9 0 -13 5 -10 10 3 6 8 10 10
10 2 0 7 -4 10 -10z m-35 -25 c0 -8 -7 -15 -15 -15 -16 0 -20 12 -8 23 11 12
23 8 23 -8z m-740 -29 c-15 -15 -33 4 -19 20 10 12 14 12 20 2 5 -7 4 -17 -1
-22z m85 -27 c-5 -7 -11 -7 -19 0 -7 6 -16 8 -20 4 -3 -4 -1 8 5 27 l12 33 14
-27 c8 -14 11 -31 8 -37z m685 32 c0 -5 -7 -11 -15 -15 -8 -3 -15 -15 -15 -27
0 -18 4 -20 26 -15 22 6 25 4 22 -15 -2 -12 -11 -27 -20 -33 -14 -8 -22 -6
-38 12 -11 12 -16 22 -10 22 8 0 9 11 5 30 -5 23 -3 30 9 30 9 0 16 5 16 10 0
6 5 10 10 10 6 0 10 -4 10 -9z m-865 -31 c-4 -12 2 -24 16 -33 16 -12 19 -18
10 -29 -7 -7 -18 -22 -26 -33 -14 -19 -14 -19 -15 8 0 17 5 27 15 27 8 0 15 5
15 10 0 6 -6 10 -14 10 -19 0 -48 29 -40 41 3 5 10 7 15 4 5 -4 9 1 9 10 0 9
5 13 10 10 6 -4 8 -15 5 -25z m145 -35 c0 -16 -9 -19 -36 -8 -16 6 -16 7 2 14
29 11 34 10 34 -6z m822 -30 c0 -5 -5 -11 -11 -13 -6 -2 -11 4 -11 13 0 9 5
15 11 13 6 -2 11 -8 11 -13z m-784 -28 c2 -12 -3 -17 -17 -17 -15 0 -21 6 -21
21 0 25 33 22 38 -4z m92 -6 c0 -14 -9 -21 -31 -26 -17 -4 -33 -4 -36 -1 -4 3
3 6 14 6 12 0 23 8 26 20 7 26 27 26 27 1z m-190 -15 c0 -3 -4 -8 -10 -11 -5
-3 -10 -1 -10 4 0 6 5 11 10 11 6 0 10 -2 10 -4z m-115 -72 c0 -15 -7 -19 -34
-19 -43 0 -50 17 -14 32 36 14 48 11 48 -13z m-126 -21 c0 -5 -4 -17 -9 -28
-8 -18 -9 -17 -9 8 -1 15 4 27 9 27 6 0 10 -3 9 -7z m-79 -49 c0 -8 -4 -12
-10 -9 -5 3 -10 1 -10 -4 0 -6 -4 -11 -10 -11 -6 0 -5 10 2 25 11 25 28 25 28
-1z m40 11 c0 -8 -4 -15 -10 -15 -5 0 -10 7 -10 15 0 8 5 15 10 15 6 0 10 -7
10 -15z m-110 -90 c0 -8 -7 -15 -15 -15 -26 0 -18 20 13 29 1 1 2 -6 2 -14z
m-40 -70 c0 -3 -9 -1 -20 5 -11 6 -18 15 -15 21 6 9 35 -12 35 -26z m865 -105
c3 -5 -1 -10 -10 -10 -9 0 -13 5 -10 10 3 6 8 10 10 10 2 0 7 -4 10 -10z"/>
<path d="M16120 25680 c-12 -8 -11 -10 7 -10 12 0 25 5 28 10 8 13 -15 13 -35
0z"/>
<path d="M14310 25586 c14 -7 29 -10 34 -8 11 6 -20 20 -44 21 -8 0 -4 -5 10
-13z"/>
<path d="M13920 25367 c0 -8 7 -20 15 -27 11 -9 15 -10 15 -1 0 7 -7 19 -15
27 -13 13 -15 13 -15 1z"/>
<path d="M13965 25270 c3 -5 8 -10 11 -10 2 0 4 5 4 10 0 6 -5 10 -11 10 -5 0
-7 -4 -4 -10z"/>
<path d="M14430 24170 c0 -5 5 -10 10 -10 6 0 10 5 10 10 0 6 -4 10 -10 10 -5
0 -10 -4 -10 -10z"/>
<path d="M14435 24130 c3 -5 8 -10 11 -10 2 0 4 5 4 10 0 6 -5 10 -11 10 -5 0
-7 -4 -4 -10z"/>
<path d="M13597 23985 c-4 -8 -1 -17 6 -21 7 -4 9 -4 5 1 -4 4 -3 14 3 22 7 8
8 13 1 13 -5 0 -12 -7 -15 -15z"/>
<path d="M13270 23790 c-12 -7 -12 -12 -3 -21 10 -10 14 -9 19 5 8 22 2 27
-16 16z"/>
<path d="M13213 23762 c-7 -4 -10 -17 -6 -30 8 -32 23 -27 20 8 -1 16 -2 30
-2 30 0 0 -5 -4 -12 -8z"/>
<path d="M14445 23720 c-3 -5 -1 -10 4 -10 6 0 11 5 11 10 0 6 -2 10 -4 10 -3
0 -8 -4 -11 -10z"/>
<path d="M14417 23693 c-4 -3 -7 -11 -7 -17 0 -6 5 -5 12 2 6 6 9 14 7 17 -3
3 -9 2 -12 -2z"/>
<path d="M13200 23671 c0 -7 -8 -11 -17 -10 -39 3 -43 -2 -17 -25 l28 -23 -22
-23 c-21 -23 -28 -40 -17 -40 3 0 16 11 29 25 13 14 34 25 47 26 l24 1 -25 7
c-31 9 -33 36 -3 36 12 0 25 4 29 8 4 4 -2 7 -12 7 -11 0 -25 5 -32 12 -9 9
-12 9 -12 -1z"/>
<path d="M13250 23461 c0 -15 31 -42 40 -36 5 3 2 15 -8 25 -18 21 -32 26 -32
11z"/>
<path d="M13480 23370 c0 -5 5 -10 11 -10 5 0 7 5 4 10 -3 6 -8 10 -11 10 -2
0 -4 -4 -4 -10z"/>
<path d="M13320 23350 c0 -5 4 -10 9 -10 6 0 13 5 16 10 3 6 -1 10 -9 10 -9 0
-16 -4 -16 -10z"/>
<path d="M13605 23130 c3 -5 10 -10 16 -10 5 0 9 5 9 10 0 6 -7 10 -16 10 -8
0 -12 -4 -9 -10z"/>
<path d="M15435 22370 c-3 -5 -1 -10 4 -10 6 0 11 5 11 10 0 6 -2 10 -4 10 -3
0 -8 -4 -11 -10z"/>
<path d="M15460 22330 c0 -5 5 -10 11 -10 5 0 7 5 4 10 -3 6 -8 10 -11 10 -2
0 -4 -4 -4 -10z"/>
<path d="M14610 18260 c0 -5 7 -10 15 -10 8 0 15 5 15 10 0 6 -7 10 -15 10 -8
0 -15 -4 -15 -10z"/>
<path d="M15170 18156 c0 -2 7 -6 15 -10 8 -3 15 -1 15 4 0 6 -7 10 -15 10 -8
0 -15 -2 -15 -4z"/>
<path d="M14755 28090 c3 -5 8 -10 11 -10 2 0 4 5 4 10 0 6 -5 10 -11 10 -5 0
-7 -4 -4 -10z"/>
<path d="M18084 27147 c-1 -17 1 -26 3 -19 3 6 12 12 20 12 10 0 13 6 9 16 -3
9 -6 18 -6 20 0 2 -6 4 -12 4 -8 0 -13 -14 -14 -33z"/>
<path d="M18161 27084 c0 -11 3 -14 6 -6 3 7 2 16 -1 19 -3 4 -6 -2 -5 -13z"/>
<path d="M18116 27035 c4 -8 8 -15 10 -15 2 0 4 7 4 15 0 8 -4 15 -10 15 -5 0
-7 -7 -4 -15z"/>
<path d="M18076 26965 c4 -8 8 -15 10 -15 2 0 4 7 4 15 0 8 -4 15 -10 15 -5 0
-7 -7 -4 -15z"/>
<path d="M18315 26870 c3 -5 8 -10 11 -10 2 0 4 5 4 10 0 6 -5 10 -11 10 -5 0
-7 -4 -4 -10z"/>
<path d="M18340 26807 c0 -19 16 -31 24 -18 3 5 -1 14 -9 21 -12 10 -15 10
-15 -3z"/>
<path d="M18524 26716 c-6 -17 2 -36 17 -36 12 0 12 37 -1 45 -6 3 -13 -1 -16
-9z"/>
<path d="M18585 26559 c-4 -6 -5 -12 -2 -15 2 -3 7 2 10 11 7 17 1 20 -8 4z"/>
<path d="M18145 26550 c3 -5 8 -10 11 -10 2 0 4 5 4 10 0 6 -5 10 -11 10 -5 0
-7 -4 -4 -10z"/>
<path d="M18013 26543 c9 -2 25 -2 35 0 9 3 1 5 -18 5 -19 0 -27 -2 -17 -5z"/>
<path d="M18090 26536 c0 -9 5 -16 10 -16 6 0 10 4 10 9 0 6 -4 13 -10 16 -5
3 -10 -1 -10 -9z"/>
<path d="M18538 26498 c-29 -33 -36 -58 -18 -58 6 0 14 10 19 23 5 13 16 29
25 36 17 14 21 31 9 31 -5 0 -20 -15 -35 -32z"/>
<path d="M18346 26395 c16 -12 17 -16 4 -24 -8 -5 -18 -7 -22 -5 -4 3 -8 0 -8
-5 0 -14 47 -14 55 -1 3 6 14 10 24 10 11 0 29 9 42 19 l24 20 -32 -1 c-18 -1
-33 -5 -33 -9 0 -4 -15 -3 -32 2 -43 12 -45 12 -22 -6z"/>
<path d="M17021 25054 c0 -11 3 -14 6 -6 3 7 2 16 -1 19 -3 4 -6 -2 -5 -13z"/>
<path d="M16880 24879 c0 -5 5 -7 10 -4 6 3 10 8 10 11 0 2 -4 4 -10 4 -5 0
-10 -5 -10 -11z"/>
<path d="M16888 24753 c7 -3 16 -2 19 1 4 3 -2 6 -13 5 -11 0 -14 -3 -6 -6z"/>
<path d="M14993 24603 c9 -9 19 -14 23 -11 10 10 -6 28 -24 28 -15 0 -15 -1 1
-17z"/>
<path d="M17756 24244 c-4 -14 -5 -28 -3 -31 3 -2 8 8 11 23 4 14 5 28 3 31
-3 2 -8 -8 -11 -23z"/>
<path d="M17745 24021 c-3 -5 -1 -12 5 -16 5 -3 10 1 10 9 0 18 -6 21 -15 7z"/>
<path d="M17740 23926 c0 -2 7 -7 16 -10 8 -3 12 -2 9 4 -6 10 -25 14 -25 6z"/>
<path d="M17500 23393 c0 -5 5 -15 10 -23 8 -12 10 -11 10 8 0 12 -4 22 -10
22 -5 0 -10 -3 -10 -7z"/>
<path d="M15935 23190 c-4 -6 -3 -16 3 -22 6 -6 12 -6 17 2 4 6 3 16 -3 22 -6
6 -12 6 -17 -2z"/>
<path d="M17442 23100 c0 -14 2 -19 5 -12 2 6 2 18 0 25 -3 6 -5 1 -5 -13z"/>
<path d="M15915 22970 c-3 -5 1 -10 10 -10 9 0 13 5 10 10 -3 6 -8 10 -10 10
-2 0 -7 -4 -10 -10z"/>
<path d="M16380 22880 c0 -5 5 -10 10 -10 6 0 10 5 10 10 0 6 -4 10 -10 10 -5
0 -10 -4 -10 -10z"/>
<path d="M16391 22818 c-1 -10 -8 -18 -16 -18 -20 0 -19 -19 1 -27 24 -9 36
10 25 38 -7 17 -10 19 -10 7z"/>
<path d="M16985 22730 c-3 -5 1 -10 10 -10 9 0 13 5 10 10 -3 6 -8 10 -10 10
-2 0 -7 -4 -10 -10z"/>
<path d="M12995 22630 c3 -5 8 -10 11 -10 2 0 4 5 4 10 0 6 -5 10 -11 10 -5 0
-7 -4 -4 -10z"/>
<path d="M13000 22520 c0 -5 5 -10 10 -10 6 0 10 5 10 10 0 6 -4 10 -10 10 -5
0 -10 -4 -10 -10z"/>
<path d="M13020 22429 c0 -11 4 -18 10 -14 5 3 7 12 3 20 -7 21 -13 19 -13 -6z"/>
<path d="M16300 22385 c0 -8 5 -15 11 -15 6 0 8 -9 4 -20 -4 -11 -2 -20 4 -20
12 0 14 14 5 48 -7 25 -24 30 -24 7z"/>
<path d="M16300 22311 c0 -6 5 -13 10 -16 6 -3 10 1 10 9 0 9 -4 16 -10 16 -5
0 -10 -4 -10 -9z"/>
<path d="M13107 22173 c-3 -5 1 -19 9 -33 l13 -25 1 27 c0 27 -14 45 -23 31z"/>
<path d="M13172 22153 c9 -2 19 -14 21 -26 4 -18 5 -17 6 6 1 22 -3 27 -21 26
-16 -1 -18 -3 -6 -6z"/>
<path d="M13310 21810 c-6 -11 -7 -20 -2 -20 10 0 32 21 32 32 0 16 -19 8 -30
-12z"/>
<path d="M14470 21781 c0 -12 6 -21 15 -21 8 0 15 4 15 9 0 5 -7 14 -15 21
-13 10 -15 9 -15 -9z"/>
<path d="M16304 21781 c-10 -10 -2 -21 15 -21 11 0 21 -6 24 -12 3 -10 10 -10
31 1 24 13 25 16 9 25 -17 9 -71 14 -79 7z"/>
<path d="M14625 21760 c-3 -5 -1 -10 4 -10 6 0 11 5 11 10 0 6 -2 10 -4 10 -3
0 -8 -4 -11 -10z"/>
<path d="M16350 21710 c0 -5 5 -10 10 -10 6 0 10 5 10 10 0 6 -4 10 -10 10 -5
0 -10 -4 -10 -10z"/>
<path d="M16020 21655 c0 -14 4 -25 9 -25 5 0 11 11 13 25 4 17 1 25 -8 25 -8
0 -14 -11 -14 -25z"/>
<path d="M14625 21631 c-3 -5 -1 -12 5 -16 5 -3 10 1 10 9 0 18 -6 21 -15 7z"/>
<path d="M16118 21585 c4 -24 8 -26 35 -21 16 3 41 6 56 6 26 1 26 1 -5 14
-17 8 -45 17 -61 20 -29 7 -30 5 -25 -19z"/>
<path d="M15337 21563 c-11 -10 -8 -43 3 -43 6 0 10 11 10 25 0 26 -2 29 -13
18z"/>
<path d="M15907 21543 c-14 -14 -6 -23 21 -22 16 0 21 3 12 6 -8 3 -18 10 -21
15 -3 4 -8 5 -12 1z"/>
<path d="M15440 21530 c0 -5 5 -10 11 -10 5 0 7 5 4 10 -3 6 -8 10 -11 10 -2
0 -4 -4 -4 -10z"/>
<path d="M16490 21530 c0 -5 5 -10 11 -10 5 0 7 5 4 10 -3 6 -8 10 -11 10 -2
0 -4 -4 -4 -10z"/>
<path d="M15638 21522 c-54 -5 -49 -27 6 -27 24 0 48 4 53 9 4 5 3 6 -4 2 -6
-3 -13 -1 -15 6 -2 8 -16 12 -40 10z"/>
<path d="M15405 21510 c3 -5 10 -10 16 -10 5 0 9 5 9 10 0 6 -7 10 -16 10 -8
0 -12 -4 -9 -10z"/>
<path d="M16417 21426 c-4 -10 -5 -21 -2 -24 9 -9 17 6 13 25 -3 17 -4 17 -11
-1z"/>
<path d="M16405 21250 c3 -5 8 -10 11 -10 2 0 4 5 4 10 0 6 -5 10 -11 10 -5 0
-7 -4 -4 -10z"/>
<path d="M16380 21210 c-10 -6 -8 -11 8 -19 15 -8 21 -7 25 3 7 17 -15 27 -33
16z"/>
<path d="M16391 21105 c1 -19 18 -51 18 -35 0 8 -4 22 -9 30 -5 8 -9 11 -9 5z"/>
<path d="M16250 20925 c0 -12 5 -15 20 -10 13 4 22 1 26 -8 8 -21 76 -19 72 2
-2 8 -16 15 -33 17 -16 1 -42 5 -57 9 -22 6 -28 4 -28 -10z"/>
<path d="M16309 20864 c-1 -5 -1 -13 0 -17 1 -4 -4 -18 -10 -30 -12 -21 -11
-21 8 -4 11 9 30 17 44 18 15 0 18 3 9 6 -8 3 -23 12 -32 21 -10 8 -19 11 -19
6z"/>
<path d="M16255 20743 c-20 -48 -14 -51 19 -9 30 40 32 46 11 46 -8 0 -22 -16
-30 -37z"/>
<path d="M16333 20753 c-4 -10 -11 -21 -17 -25 -6 -4 -1 -8 12 -8 17 0 22 6
22 25 0 29 -8 33 -17 8z"/>
<path d="M12930 20715 c0 -8 5 -15 10 -15 6 0 10 7 10 15 0 8 -4 15 -10 15 -5
0 -10 -7 -10 -15z"/>
<path d="M12960 20710 c0 -5 7 -7 15 -4 8 4 15 8 15 10 0 2 -7 4 -15 4 -8 0
-15 -4 -15 -10z"/>
<path d="M12887 20663 c-29 -41 -28 -51 5 -49 19 1 22 8 25 44 1 23 1 42 -1
42 -1 0 -15 -17 -29 -37z"/>
<path d="M16236 20611 c-4 -5 -2 -12 3 -15 5 -4 12 -2 15 3 4 5 2 12 -3 15 -5
4 -12 2 -15 -3z"/>
<path d="M16270 20610 c0 -5 5 -10 10 -10 6 0 10 5 10 10 0 6 -4 10 -10 10 -5
0 -10 -4 -10 -10z"/>
<path d="M12830 20570 c0 -5 9 -10 19 -10 11 0 23 5 26 10 4 6 -5 10 -19 10
-14 0 -26 -4 -26 -10z"/>
<path d="M12830 20535 c-10 -12 -10 -15 4 -15 9 0 16 7 16 15 0 8 -2 15 -4 15
-2 0 -9 -7 -16 -15z"/>
<path d="M16312 20518 c5 -15 28 -23 28 -10 0 5 -7 13 -16 16 -10 4 -14 1 -12
-6z"/>
<path d="M16260 20434 c0 -8 5 -12 10 -9 6 3 10 10 10 16 0 5 -4 9 -10 9 -5 0
-10 -7 -10 -16z"/>
<path d="M16240 20380 c0 -5 4 -10 9 -10 6 0 13 5 16 10 3 6 -1 10 -9 10 -9 0
-16 -4 -16 -10z"/>
<path d="M16492 19640 c0 -14 2 -19 5 -12 2 6 2 18 0 25 -3 6 -5 1 -5 -13z"/>
<path d="M16495 19600 c3 -6 1 -10 -4 -10 -6 0 -11 -9 -11 -20 0 -11 5 -20 10
-20 6 0 10 -8 11 -17 1 -12 4 -10 9 7 13 40 11 57 -6 64 -8 3 -12 2 -9 -4z"/>
<path d="M16460 19485 c0 -8 5 -15 10 -15 6 0 10 7 10 15 0 8 -4 15 -10 15 -5
0 -10 -7 -10 -15z"/>
<path d="M13303 18156 c-51 -51 -93 -100 -93 -109 0 -24 69 -28 81 -5 12 22
29 24 29 3 0 -8 7 -15 15 -15 8 0 15 8 15 18 0 14 2 15 10 2 7 -12 10 -8 10
14 0 24 -2 27 -15 16 -12 -10 -19 -10 -27 -2 -7 7 -8 15 -4 19 4 4 11 1 15 -6
7 -10 10 -11 16 -1 5 8 1 18 -10 27 -16 11 -16 13 -3 13 9 0 18 -5 20 -10 2
-6 17 -12 33 -13 26 -2 30 2 33 26 2 15 8 27 13 27 6 0 7 4 4 10 -3 5 -8 19
-10 30 -3 18 -28 51 -37 50 -2 -1 -45 -43 -95 -94z m-26 -108 c-3 -7 -5 -2 -5
12 0 14 2 19 5 13 2 -7 2 -19 0 -25z"/>
<path d="M15768 18233 c10 -4 10 -8 1 -19 -9 -11 -8 -14 3 -14 8 0 17 3 21 6
10 11 -5 34 -22 33 -11 0 -12 -2 -3 -6z"/>
<path d="M13449 18148 c-6 -11 -3 -88 3 -88 4 0 8 20 8 45 0 37 -5 55 -11 43z"/>
<path d="M15577 18113 c-12 -12 -7 -22 8 -17 8 4 15 10 15 15 0 11 -14 12 -23
2z"/>
<path d="M15295 18063 c-18 -28 -18 -28 2 -10 11 9 30 17 44 18 22 0 23 1 4 9
-30 13 -31 12 -50 -17z"/>
<path d="M15378 18073 c7 -3 16 -2 19 1 4 3 -2 6 -13 5 -11 0 -14 -3 -6 -6z"/>
<path d="M15495 18070 c3 -5 8 -10 11 -10 2 0 4 5 4 10 0 6 -5 10 -11 10 -5 0
-7 -4 -4 -10z"/>
<path d="M15224 18054 c3 -9 6 -20 6 -25 0 -6 4 -8 9 -5 12 8 2 46 -11 46 -6
0 -7 -7 -4 -16z"/>
<path d="M13185 18030 c-3 -5 -1 -10 4 -10 6 0 11 5 11 10 0 6 -2 10 -4 10 -3
0 -8 -4 -11 -10z"/>
<path d="M13112 17944 c-103 -109 -71 -99 49 16 18 18 32 50 21 50 -5 0 -36
-30 -70 -66z"/>
<path d="M14290 17930 c0 -5 5 -10 11 -10 5 0 7 5 4 10 -3 6 -8 10 -11 10 -2
0 -4 -4 -4 -10z"/>
<path d="M15178 17913 c6 -2 18 -2 25 0 6 3 1 5 -13 5 -14 0 -19 -2 -12 -5z"/>
<path d="M14300 17901 c0 -6 5 -13 10 -16 6 -3 10 1 10 9 0 9 -4 16 -10 16 -5
0 -10 -4 -10 -9z"/>
<path d="M15100 17900 c0 -5 5 -10 10 -10 6 0 10 5 10 10 0 6 -4 10 -10 10 -5
0 -10 -4 -10 -10z"/>
<path d="M15085 17860 c3 -5 8 -10 11 -10 2 0 4 5 4 10 0 6 -5 10 -11 10 -5 0
-7 -4 -4 -10z"/>
<path d="M16330 17803 c-7 -32 -25 -93 -41 -135 -35 -94 -36 -104 -4 -112 29
-7 33 -22 8 -29 -14 -4 -12 -5 5 -6 18 -1 22 -7 23 -33 l2 -33 4 30 c3 16 10
33 16 37 19 12 37 9 37 -7 0 -9 -6 -12 -15 -9 -9 4 -15 0 -15 -9 0 -22 20 -32
31 -16 13 22 22 3 9 -21 -9 -17 -14 -19 -20 -10 -4 7 -13 9 -20 5 -9 -5 -4
-12 16 -20 16 -6 31 -8 34 -4 8 11 73 -4 78 -19 4 -14 -34 -17 -43 -2 -6 10
-35 2 -35 -10 0 -4 12 -11 26 -14 31 -8 63 -36 42 -36 -9 -1 -8 -4 4 -13 11
-9 14 -22 11 -40 -4 -22 -2 -26 10 -21 9 3 25 -3 37 -14 18 -17 19 -20 5 -32
-12 -10 -15 -10 -15 0 0 8 -2 11 -5 8 -10 -10 6 -36 26 -41 15 -4 19 0 19 24
0 19 5 29 15 29 18 0 18 7 6 63 -6 23 -17 87 -27 142 -38 226 -87 333 -176
384 l-36 21 -12 -57z"/>
<path d="M14110 17815 c-10 -12 -9 -16 5 -21 19 -8 40 9 31 25 -10 15 -21 14
-36 -4z"/>
<path d="M14970 17720 c0 -5 5 -10 11 -10 5 0 7 5 4 10 -3 6 -8 10 -11 10 -2
0 -4 -4 -4 -10z"/>
<path d="M14443 17698 c4 -14 36 -12 52 3 5 5 -4 9 -24 9 -22 0 -31 -4 -28
-12z"/>
<path d="M14110 17571 c0 -6 4 -13 10 -16 6 -3 7 1 4 9 -7 18 -14 21 -14 7z"/>
<path d="M16232 17507 c-16 -19 -33 -67 -24 -67 5 0 18 18 31 40 21 38 16 55
-7 27z"/>
<path d="M16120 17369 c0 -5 5 -7 10 -4 6 3 10 8 10 11 0 2 -4 4 -10 4 -5 0
-10 -5 -10 -11z"/>
<path d="M16418 17363 c7 -3 16 -2 19 1 4 3 -2 6 -13 5 -11 0 -14 -3 -6 -6z"/>
<path d="M16410 17340 c0 -5 5 -10 10 -10 6 0 10 5 10 10 0 6 -4 10 -10 10 -5
0 -10 -4 -10 -10z"/>
<path d="M15397 17290 c-9 -11 -15 -20 -12 -20 12 0 55 24 55 32 0 15 -25 8
-43 -12z"/>
<path d="M15240 17286 c0 -13 12 -16 62 -16 67 0 74 7 14 15 -21 2 -47 7 -57
10 -13 4 -19 1 -19 -9z"/>
<path d="M16575 17228 c-3 -8 0 -28 7 -44 l12 -29 4 34 c4 36 -13 65 -23 39z"/>
<path d="M14825 17200 c-3 -5 -1 -10 4 -10 6 0 11 5 11 10 0 6 -2 10 -4 10 -3
0 -8 -4 -11 -10z"/>
<path d="M16566 17135 c4 -8 8 -15 10 -15 2 0 4 7 4 15 0 8 -4 15 -10 15 -5 0
-7 -7 -4 -15z"/>
<path d="M14766 17111 c-4 -7 -5 -15 -2 -18 9 -9 19 4 14 18 -4 11 -6 11 -12
0z"/>
<path d="M14420 17080 c0 -5 5 -10 11 -10 5 0 7 5 4 10 -3 6 -8 10 -11 10 -2
0 -4 -4 -4 -10z"/>
<path d="M14120 17046 c0 -9 50 -12 62 -5 8 6 -1 9 -24 9 -21 0 -38 -2 -38 -4z"/>
<path d="M14701 17032 c-7 -13 -11 -26 -8 -28 8 -8 29 25 25 38 -3 8 -9 4 -17
-10z"/>
<path d="M14530 16863 c0 -18 51 -123 60 -123 18 0 18 43 -1 63 -10 11 -19 17
-19 11 -1 -5 -9 7 -20 26 -11 19 -19 29 -20 23z"/>
<path d="M9842 16755 c0 -16 2 -22 5 -12 2 9 2 23 0 30 -3 6 -5 -1 -5 -18z"/>
<path d="M9843 16680 c0 -25 2 -35 4 -22 2 12 2 32 0 45 -2 12 -4 2 -4 -23z"/>
<path d="M9844 16333 c-8 -3 -9 -16 -2 -46 14 -65 28 -69 21 -6 -7 62 -5 57
-19 52z"/>
<path d="M9993 16322 c-89 -36 -111 -80 -119 -231 -2 -58 -9 -128 -14 -156 -5
-27 -14 -196 -20 -375 -7 -179 -14 -339 -16 -356 -2 -17 -8 -157 -14 -311 -5
-154 -12 -287 -15 -296 -7 -17 -8 -45 -18 -362 -3 -126 -11 -302 -17 -390 -5
-88 -17 -322 -25 -519 -13 -292 -13 -362 -3 -373 13 -13 196 -18 983 -27 216
-3 321 -8 323 -15 3 -8 10 -8 24 0 18 10 510 7 885 -6 98 -3 479 -12 908 -20
127 -3 559 -9 960 -15 402 -5 807 -12 900 -15 94 -3 251 -8 350 -11 99 -3 320
-10 490 -16 171 -6 355 -12 410 -13 55 -2 332 -10 615 -18 283 -9 715 -19 960
-22 245 -3 533 -8 640 -10 107 -2 344 -7 525 -10 182 -4 368 -11 415 -16 47
-5 290 -12 540 -15 250 -3 462 -7 470 -10 8 -3 143 -7 300 -9 157 -2 371 -8
475 -12 105 -4 258 -8 340 -8 83 -1 160 -2 173 -3 27 -2 20 -22 -8 -22 -13 0
-17 -5 -14 -15 4 -8 10 -15 16 -15 5 0 6 5 3 10 -3 6 0 10 8 10 8 0 18 7 21
16 6 15 20 16 124 9 64 -4 160 -9 212 -10 52 -1 101 -2 108 -3 18 -3 15 -22
-4 -22 -8 0 -12 -5 -9 -10 5 -8 12 -7 22 1 12 10 21 10 46 -3 37 -19 137 -32
137 -18 0 6 18 10 39 10 22 0 42 6 45 13 3 9 9 7 19 -6 13 -15 15 -16 21 -2 6
16 36 21 36 6 0 -5 17 -10 38 -10 79 -1 90 -2 95 -15 4 -10 18 -12 51 -9 25 3
51 1 58 -4 7 -5 45 -11 83 -12 39 -1 71 -5 73 -9 4 -14 82 -1 82 14 0 8 5 14
11 14 6 0 9 -9 6 -20 -4 -17 0 -20 29 -20 19 0 34 -4 34 -8 0 -4 15 -7 33 -7
17 0 41 -7 52 -17 20 -17 22 -17 55 0 18 10 35 27 36 38 2 10 13 27 25 36 11
10 20 18 18 19 -2 0 -76 3 -164 5 -226 6 -242 9 -260 45 -14 27 -13 52 10 287
14 141 34 365 45 497 24 294 54 624 80 890 11 110 31 328 45 485 14 157 30
326 35 375 22 189 41 405 47 530 5 107 3 136 -10 160 -40 79 -85 102 -203 110
-77 4 -1397 30 -1464 28 -14 0 -128 3 -255 8 -126 4 -426 11 -665 15 -239 3
-487 7 -550 9 -377 10 -622 16 -910 20 -305 4 -559 11 -745 20 -44 2 -267 9
-495 15 -228 5 -455 12 -505 15 -49 2 -207 7 -350 10 -143 3 -305 7 -360 10
-55 3 -224 7 -375 11 -151 3 -372 9 -490 14 -118 5 -307 9 -420 9 -113 1 -338
6 -500 11 -162 5 -403 12 -535 15 -132 3 -321 8 -420 10 -99 3 -272 7 -385 10
-113 3 -239 7 -280 10 -41 2 -154 6 -250 10 -96 3 -238 8 -315 12 -77 3 -230
7 -340 8 -110 2 -261 7 -335 13 -74 6 -268 14 -430 17 -380 8 -546 13 -810 25
-310 14 -417 12 -467 -8z m11993 -3662 c12 0 21 -7 21 -15 0 -17 -32 -21 -42
-5 -3 6 -15 10 -26 10 -10 0 -19 5 -19 11 0 7 9 9 23 5 12 -3 31 -6 43 -6z
m594 -29 c0 -6 -4 -13 -10 -16 -5 -3 -10 1 -10 9 0 9 5 16 10 16 6 0 10 -4 10
-9z"/>
<path d="M15185 16241 c-6 -11 9 -23 19 -14 9 9 7 23 -3 23 -6 0 -12 -4 -16
-9z"/>
<path d="M2857 14653 c-4 -3 -7 -27 -7 -51 0 -57 12 -48 16 13 3 46 2 50 -9
38z"/>
<path d="M2852 14520 c0 -19 2 -27 5 -17 2 9 2 25 0 35 -3 9 -5 1 -5 -18z"/>
<path d="M2842 14180 c0 -14 2 -19 5 -12 2 6 2 18 0 25 -3 6 -5 1 -5 -13z"/>
<path d="M2842 14100 c0 -14 2 -19 5 -12 2 6 2 18 0 25 -3 6 -5 1 -5 -13z"/>
<path d="M2834 13730 c0 -63 1 -89 3 -57 2 31 2 83 0 115 -2 31 -3 5 -3 -58z"/>
<path d="M2820 13518 c0 -45 2 -79 4 -77 2 2 7 39 11 82 5 53 3 77 -4 77 -7 0
-11 -30 -11 -82z"/>
<path d="M2818 13318 c-2 -57 0 -107 4 -112 5 -6 8 40 8 102 0 62 -2 112 -4
112 -3 0 -6 -46 -8 -102z"/>
<path d="M2800 12983 c0 -341 -38 -1324 -52 -1341 -6 -7 -72 -54 -147 -104
-111 -75 -305 -218 -606 -448 -33 -25 -364 -293 -412 -333 -15 -12 -43 -36
-62 -53 -20 -16 -49 -40 -66 -53 -16 -12 -48 -39 -70 -59 -22 -19 -60 -54 -85
-76 -51 -46 -97 -84 -218 -180 -46 -36 -109 -87 -140 -113 -31 -27 -63 -53
-72 -60 -186 -146 -178 -140 -246 -199 -80 -70 -205 -177 -229 -196 -182 -146
-241 -193 -312 -247 l-83 -65 0 -128 c0 -70 2 -128 5 -128 7 0 105 75 466 354
35 28 93 75 129 106 36 31 79 67 96 81 94 74 184 147 220 178 22 20 112 95
199 166 87 72 185 153 218 182 32 29 104 89 160 134 147 119 201 163 207 169
8 8 101 82 156 125 75 57 187 149 269 220 39 33 105 88 148 120 44 33 116 88
160 123 138 107 282 210 297 214 11 2 13 -37 12 -247 -3 -292 -18 -906 -32
-1320 -6 -159 -15 -429 -20 -600 -18 -553 -30 -765 -46 -810 -25 -76 -33 -139
-38 -311 -3 -126 0 -189 11 -249 13 -67 14 -140 9 -450 -3 -203 -10 -507 -16
-675 -5 -168 -15 -478 -20 -690 -6 -212 -15 -500 -20 -640 -5 -140 -14 -408
-20 -595 -5 -187 -15 -470 -20 -630 -17 -491 -19 -558 -30 -940 -6 -203 -14
-444 -19 -535 -5 -91 -9 -178 -8 -195 0 -16 -3 -77 -7 -135 -7 -111 -23 -651
-31 -1005 -7 -310 -24 -795 -35 -995 -5 -96 -10 -214 -10 -262 0 -86 1 -88 24
-88 l24 0 6 217 c4 120 9 254 11 298 3 44 7 157 10 250 3 94 7 244 10 335 3
91 7 271 10 400 3 129 10 339 15 465 5 127 15 349 20 495 6 146 15 352 19 459
5 107 9 296 10 420 1 124 4 228 7 232 2 4 4 107 4 230 0 123 5 330 10 459 5
129 12 336 15 460 3 124 10 367 15 540 6 173 15 466 20 650 33 1087 51 1676
60 1915 13 336 27 766 39 1215 6 190 13 408 16 485 10 275 15 466 25 915 5
250 13 571 16 713 l7 259 51 37 c46 34 138 95 281 186 96 61 110 68 249 138
265 132 559 206 839 212 87 2 160 5 162 7 1 1 6 37 10 79 9 106 6 109 -140
109 -226 0 -508 -48 -765 -131 -140 -45 -347 -157 -585 -315 -60 -40 -82 -49
-87 -39 -8 13 7 1117 17 1318 3 69 2 107 -5 107 -6 0 -10 -51 -10 -137z"/>
<path d="M4669 13069 c-50 -8 -129 -41 -175 -75 -45 -33 -84 -104 -84 -153 0
-46 11 -50 85 -30 l39 11 -29 13 -30 12 40 19 c22 10 48 28 58 39 16 19 18 19
28 2 7 -12 17 -16 29 -12 11 3 28 1 39 -4 14 -8 39 -8 83 -1 91 15 94 15 164
-5 15 -5 23 0 31 17 9 18 12 19 12 6 1 -20 50 -36 60 -20 3 5 23 17 44 25 20
9 37 23 37 31 0 18 -21 21 -35 7 -6 -6 -30 -5 -62 1 -42 9 -53 15 -53 30 0 18
5 19 77 14 58 -4 81 -10 90 -23 12 -16 13 -16 13 1 0 15 6 17 35 12 40 -8 47
8 17 40 -10 11 -17 25 -15 31 5 14 -27 19 -85 14 -34 -2 -41 -6 -32 -16 9 -11
0 -13 -52 -10 -67 4 -138 -9 -138 -25 0 -6 9 -10 20 -10 15 0 20 -7 20 -25 0
-19 -5 -25 -21 -25 -11 0 -17 5 -14 10 4 6 -7 10 -26 10 -25 0 -29 -3 -20 -14
23 -28 -12 -38 -106 -31 -140 10 -161 14 -168 36 -10 31 12 50 51 43 39 -7
104 14 104 34 0 11 11 13 50 10 28 -3 50 -2 50 2 0 11 -79 16 -131 9z"/>
<path d="M5223 13063 c-22 -4 -22 -5 7 -36 16 -18 30 -35 30 -38 0 -13 70 -20
90 -9 16 9 22 6 36 -15 9 -14 20 -22 25 -19 5 3 25 0 45 -5 28 -8 45 -7 72 4
44 19 72 19 72 1 0 -18 20 -26 41 -15 9 4 48 15 88 25 72 16 73 16 96 -6 21
-20 25 -20 56 -7 24 10 60 12 124 9 50 -2 113 -5 141 -6 35 -1 59 -7 72 -19
11 -10 22 -14 23 -9 5 12 187 23 214 13 11 -5 32 -5 46 -1 15 4 32 4 40 -1 8
-5 16 -3 21 4 14 21 9 27 -23 27 -17 0 -28 4 -24 10 7 11 -4 13 -85 16 -87 3
-193 15 -220 25 -14 5 -137 11 -275 13 -137 2 -257 6 -265 10 -24 10 -77 15
-205 21 -66 3 -142 7 -170 9 -27 1 -60 1 -72 -1z"/>
<path d="M4779 13024 c19 -8 37 -12 40 -9 9 10 -22 25 -49 24 -23 0 -22 -1 9
-15z"/>
<path d="M6688 12973 c7 -3 16 -2 19 1 4 3 -2 6 -13 5 -11 0 -14 -3 -6 -6z"/>
<path d="M7360 12961 c0 -5 25 -9 56 -8 34 1 49 4 37 8 -27 11 -93 11 -93 0z"/>
<path d="M5220 12950 c0 -5 -7 -10 -15 -10 -8 0 -12 -6 -9 -13 7 -20 78 -7 82
16 3 13 -3 17 -27 17 -17 0 -31 -4 -31 -10z"/>
<path d="M8160 12940 c0 -5 9 -10 21 -10 11 0 17 5 14 10 -3 6 -13 10 -21 10
-8 0 -14 -4 -14 -10z"/>
<path d="M8480 12930 c0 -5 7 -7 15 -4 8 4 15 8 15 10 0 2 -7 4 -15 4 -8 0
-15 -4 -15 -10z"/>
<path d="M9530 12924 c0 -15 78 -52 88 -42 5 5 22 10 38 12 16 2 33 4 39 5 6
1 6 4 0 10 -13 13 -165 26 -165 15z"/>
<path d="M8000 12895 c0 -11 11 -15 40 -15 48 0 53 15 9 24 -45 9 -49 8 -49
-9z"/>
<path d="M9953 12889 c14 -8 22 -8 30 0 8 8 3 11 -18 11 -26 -1 -28 -2 -12
-11z"/>
<path d="M10373 12883 c9 -2 23 -2 30 0 6 3 -1 5 -18 5 -16 0 -22 -2 -12 -5z"/>
<path d="M9003 12743 c-20 -7 -15 -20 9 -26 12 -4 26 -1 29 5 14 23 -7 34 -38
21z"/>
<path d="M9730 12710 c0 -5 -12 -11 -27 -11 -21 -1 -18 -3 12 -8 42 -7 98 -1
63 7 -10 2 -18 8 -18 13 0 5 -7 9 -15 9 -8 0 -15 -4 -15 -10z"/>
<path d="M9823 12683 c9 -2 25 -2 35 0 9 3 1 5 -18 5 -19 0 -27 -2 -17 -5z"/>
<path d="M20606 12665 c4 -8 13 -15 21 -15 12 0 12 2 -1 15 -8 8 -17 15 -20
15 -3 0 -3 -7 0 -15z"/>
<path d="M10848 12663 c7 -3 16 -2 19 1 4 3 -2 6 -13 5 -11 0 -14 -3 -6 -6z"/>
<path d="M10938 12663 c7 -3 16 -2 19 1 4 3 -2 6 -13 5 -11 0 -14 -3 -6 -6z"/>
<path d="M11008 12663 c6 -2 18 -2 25 0 6 3 1 5 -13 5 -14 0 -19 -2 -12 -5z"/>
<path d="M11098 12663 c12 -2 30 -2 40 0 9 3 -1 5 -23 4 -22 0 -30 -2 -17 -4z"/>
<path d="M21136 12648 c6 -10 64 -11 64 0 0 4 -16 7 -35 8 -18 0 -32 -3 -29
-8z"/>
<path d="M21225 12650 c-3 -5 3 -10 15 -10 12 0 18 5 15 10 -3 6 -10 10 -15
10 -5 0 -12 -4 -15 -10z"/>
<path d="M21280 12645 c0 -9 9 -15 23 -15 16 0 18 3 8 9 -11 7 -11 9 0 14 8 3
4 6 -8 6 -14 1 -23 -5 -23 -14z"/>
<path d="M25090 12550 c0 -5 7 -10 16 -10 8 0 12 5 9 10 -3 6 -10 10 -16 10
-5 0 -9 -4 -9 -10z"/>
<path d="M26450 12465 c7 -8 16 -15 21 -15 5 0 6 7 3 15 -4 8 -13 15 -21 15
-13 0 -13 -3 -3 -15z"/>
<path d="M21080 12440 c0 -13 11 -13 30 0 12 8 11 10 -7 10 -13 0 -23 -4 -23
-10z"/>
<path d="M21228 12443 c7 -3 16 -2 19 1 4 3 -2 6 -13 5 -11 0 -14 -3 -6 -6z"/>
<path d="M21310 12440 c8 -5 24 -10 35 -10 11 0 27 5 35 10 11 7 1 10 -35 10
-36 0 -46 -3 -35 -10z"/>
<path d="M21825 12430 c3 -5 8 -10 11 -10 2 0 4 5 4 10 0 6 -5 10 -11 10 -5 0
-7 -4 -4 -10z"/>
<path d="M26290 12430 c0 -5 7 -10 15 -10 8 0 15 5 15 10 0 6 -7 10 -15 10 -8
0 -15 -4 -15 -10z"/>
<path d="M21868 12423 c12 -2 30 -2 40 0 9 3 -1 5 -23 4 -22 0 -30 -2 -17 -4z"/>
<path d="M21963 12423 c9 -2 23 -2 30 0 6 3 -1 5 -18 5 -16 0 -22 -2 -12 -5z"/>
<path d="M22182 12425 c2 -3 45 -7 94 -10 49 -3 101 -8 116 -10 15 -2 30 -1
32 4 3 5 -18 11 -47 15 -62 7 -202 8 -195 1z"/>
<path d="M22483 12408 c-2 -5 31 -8 74 -9 97 -1 355 -7 528 -13 133 -4 349 3
340 12 -11 12 -934 21 -942 10z"/>
<path d="M23647 12413 c-4 -6 -51 -9 -109 -7 -90 3 -100 1 -78 -10 14 -8 72
-16 130 -20 171 -10 912 -16 845 -6 -62 8 -309 22 -380 20 -43 -1 -281 17
-356 26 -26 4 -49 2 -52 -3z"/>
<path d="M24658 12372 c-27 -6 -21 -17 10 -18 242 -9 685 -11 637 -3 -99 15
-239 27 -248 19 -7 -6 -350 -3 -372 3 -5 2 -18 2 -27 -1z"/>
<path d="M26561 12347 c-1 -16 -5 -26 -11 -22 -6 3 -20 3 -31 0 -17 -6 -19 -9
-8 -16 21 -13 69 -11 68 4 -1 6 -5 23 -9 37 l-8 25 -1 -28z"/>
<path d="M25404 12349 c-22 -5 -24 -7 -9 -9 48 -6 195 -6 245 0 45 6 30 8 -76
11 -72 2 -144 1 -160 -2z"/>
<path d="M26204 12329 c-3 -5 23 -9 58 -8 70 1 68 5 -5 12 -26 3 -50 1 -53 -4z"/>
<path d="M26048 12323 c6 -2 18 -2 25 0 6 3 1 5 -13 5 -14 0 -19 -2 -12 -5z"/>
<path d="M4284 7769 c14 -17 26 -36 26 -42 0 -7 11 -29 25 -49 14 -20 25 -46
25 -56 0 -35 24 -43 123 -41 52 1 99 -1 104 -4 6 -4 13 -62 16 -129 7 -141 25
-271 63 -443 14 -66 34 -158 44 -205 10 -47 26 -119 35 -160 39 -173 105 -476
159 -740 19 -91 53 -253 76 -360 52 -248 131 -633 140 -685 4 -22 29 -139 54
-260 26 -121 65 -308 88 -415 22 -107 44 -211 48 -230 4 -19 15 -69 23 -110 9
-41 28 -131 42 -200 76 -361 138 -662 149 -720 30 -152 48 -237 56 -265 5 -16
16 -68 25 -114 8 -47 24 -126 35 -175 11 -50 25 -113 31 -141 17 -81 94 -446
134 -630 52 -238 100 -382 189 -565 65 -132 157 -250 175 -222 6 11 32 665 38
992 4 236 2 633 -3 642 -3 5 -1 14 4 21 6 7 10 23 10 37 0 14 3 34 7 46 4 14
1 27 -9 37 -22 22 -20 64 4 84 19 16 19 18 2 43 -14 21 -17 48 -16 180 1 98
-2 146 -7 132 -5 -13 -7 -28 -3 -33 3 -5 2 -15 -3 -21 -11 -18 -11 -32 -18
-452 -3 -209 -7 -381 -9 -384 -3 -2 -2 -11 1 -20 4 -10 3 -14 -1 -10 -6 5 -75
301 -89 383 -2 17 -30 145 -61 285 -31 140 -79 361 -106 490 -27 129 -54 251
-59 270 -6 19 -22 96 -36 170 -14 74 -35 173 -45 220 -33 142 -87 394 -130
605 -23 110 -54 261 -70 335 -39 178 -90 424 -145 695 -84 421 -204 989 -239
1135 -14 58 -32 139 -41 180 -9 41 -20 91 -25 110 -54 239 -110 523 -110 564
0 21 46 21 665 -4 490 -19 512 -19 524 -7 9 9 14 8 21 -3 5 -8 12 -11 16 -7 4
4 -1 16 -11 27 -16 18 -16 20 -2 20 13 0 17 10 17 43 0 23 4 48 9 56 11 17 36
17 616 7 209 -3 495 -8 635 -11 140 -2 390 -9 555 -14 165 -6 453 -13 640 -16
347 -6 919 -21 1125 -30 63 -3 286 -9 495 -15 209 -5 524 -13 700 -19 407 -13
984 -29 1280 -36 264 -6 841 -22 1090 -31 406 -13 866 -24 1355 -33 289 -5
613 -12 720 -15 195 -6 303 -8 1335 -26 557 -10 687 -12 2075 -30 426 -5 1027
-14 1335 -20 308 -5 907 -12 1330 -16 882 -6 1251 -11 1485 -19 338 -12 1066
-24 1088 -18 32 8 22 27 -19 34 -92 17 -123 55 -41 52 6 -1 12 3 12 8 0 5 -12
9 -27 10 -16 0 -39 2 -53 4 -86 10 -273 15 -710 20 -272 3 -769 10 -1105 15
-855 13 -2117 29 -2720 35 -280 2 -602 7 -715 10 -113 2 -536 9 -940 15 -404
6 -838 12 -965 15 -126 2 -570 7 -985 10 -415 3 -962 10 -1215 15 -253 5 -586
12 -740 15 -154 3 -476 10 -715 15 -239 5 -653 12 -920 15 -267 4 -708 13
-980 21 -272 8 -677 19 -900 24 -223 5 -511 14 -640 19 -129 6 -435 15 -680
21 -245 6 -519 12 -610 15 -91 3 -421 10 -735 15 -313 6 -608 13 -655 15 -397
18 -957 16 -870 -4 27 -6 27 -10 16 -88 -11 -77 -35 -94 -138 -100 -62 -3 -90
-1 -111 10 -22 11 -37 13 -60 6 -45 -14 -328 0 -347 16 -9 8 -22 10 -35 5 -11
-5 -38 -8 -60 -8 l-40 1 35 7 35 7 -40 2 c-22 1 -46 5 -54 10 -9 6 -21 5 -32
-2 -13 -8 -24 -8 -44 1 -14 7 -45 12 -68 12 -51 0 -117 17 -117 30 0 6 9 10
19 10 11 0 23 5 26 10 3 6 -2 10 -11 10 -14 0 -11 7 14 31 25 24 35 28 50 20
13 -7 31 -6 61 5 23 8 80 16 127 18 123 5 118 17 -6 15 -58 -1 -242 1 -410 4
-168 3 -297 4 -287 1 9 -3 17 -12 17 -21 0 -11 6 -14 24 -9 12 3 26 3 29 0 9
-9 -63 -74 -82 -74 -9 0 -25 -7 -35 -15 -19 -14 -18 -15 13 -21 21 -5 29 -10
22 -17 -6 -6 -62 -8 -145 -5 -152 5 -166 11 -187 77 -6 20 -20 46 -31 57 -18
20 -18 23 -3 38 15 15 13 16 -25 16 l-42 0 26 -31z m494 -6 c-10 -2 -26 -2
-35 0 -10 3 -2 5 17 5 19 0 27 -2 18 -5z m157 -113 c3 -5 1 -10 -4 -10 -6 0
-11 5 -11 10 0 6 2 10 4 10 3 0 8 -4 11 -10z m-32 -133 c6 -48 18 -142 47
-369 16 -126 8 -148 -17 -48 -31 123 -51 249 -59 380 -6 102 -5 113 8 102 8
-7 18 -36 21 -65z"/>
<path d="M5590 7761 c24 -14 90 -23 90 -13 0 10 -48 22 -84 22 -17 -1 -18 -2
-6 -9z"/>
<path d="M5705 7760 c-8 -13 5 -13 25 0 13 8 13 10 -2 10 -9 0 -20 -4 -23 -10z"/>
<path d="M5788 7753 c7 -3 16 -2 19 1 4 3 -2 6 -13 5 -11 0 -14 -3 -6 -6z"/>
<path d="M5948 7753 c6 -2 18 -2 25 0 6 3 1 5 -13 5 -14 0 -19 -2 -12 -5z"/>
<path d="M5185 7680 c4 -6 10 -8 15 -5 4 3 11 -2 14 -11 3 -8 11 -12 17 -8 9
5 6 11 -6 21 -22 15 -49 18 -40 3z"/>
<path d="M20035 7250 c-3 -5 -1 -10 4 -10 6 0 11 5 11 10 0 6 -2 10 -4 10 -3
0 -8 -4 -11 -10z"/>
<path d="M6231 3864 c0 -11 3 -14 6 -6 3 7 2 16 -1 19 -3 4 -6 -2 -5 -13z"/>
<path d="M6233 3790 c0 -30 2 -43 4 -27 2 15 2 39 0 55 -2 15 -4 2 -4 -28z"/>
<path d="M6190 3230 c0 -5 5 -10 10 -10 6 0 10 5 10 10 0 6 -4 10 -10 10 -5 0
-10 -4 -10 -10z"/>
<path d="M6188 3156 c-4 -38 6 -49 17 -16 3 11 2 27 -3 36 -8 14 -10 9 -14
-20z"/>
<path d="M6202 3080 c0 -14 2 -19 5 -12 2 6 2 18 0 25 -3 6 -5 1 -5 -13z"/>
<path d="M6231 3024 c0 -11 3 -14 6 -6 3 7 2 16 -1 19 -3 4 -6 -2 -5 -13z"/>
<path d="M2496 648 c-8 -33 -7 -88 2 -88 4 0 6 16 4 35 -3 25 0 36 11 41 9 3
13 12 10 20 -8 21 -20 17 -27 -8z"/>
<path d="M2470 371 c0 -36 4 -60 9 -56 9 5 6 104 -4 113 -3 3 -5 -23 -5 -57z"/>
<path d="M2540 416 c0 -8 5 -18 10 -21 6 -3 10 1 10 9 0 8 -4 18 -10 21 -5 3
-10 -1 -10 -9z"/>
<path d="M2547 372 c-5 -7 -12 -10 -17 -7 -10 6 -15 -1 -24 -40 l-8 -30 21 24
c21 24 24 22 22 -14 -3 -45 -12 -66 -24 -59 -9 5 -9 4 0 -6 16 -17 69 -4 54
13 -5 7 -11 40 -13 72 -2 36 -6 55 -11 47z"/>
<path d="M2543 199 c-13 -5 -23 -13 -23 -19 0 -5 -9 -10 -20 -10 -12 0 -20 7
-20 17 0 11 -3 13 -9 7 -12 -11 -19 -194 -8 -194 4 0 7 6 7 13 0 8 4 7 10 -3
8 -11 9 -8 4 13 -4 16 -1 33 6 42 10 12 9 15 -4 15 -25 0 -20 45 7 63 21 14
24 13 35 -1 10 -16 11 -16 11 -1 1 21 22 29 51 22 17 -5 21 -2 19 12 -5 23
-38 35 -66 24z"/>
<path d="M2482 108 c7 -19 38 -22 38 -4 0 10 -9 16 -21 16 -12 0 -19 -5 -17
-12z"/>
<path d="M2538 89 c-17 -18 -17 -19 2 -19 13 0 20 7 20 20 0 24 0 24 -22 -1z"/>
<path d="M2632 70 c9 -13 14 -16 20 -7 4 6 2 15 -5 19 -21 14 -28 9 -15 -12z"/>
</g>
</svg>
